<?xml version="1.0" encoding="UTF-8"?>
<svg version="1.1" xmlns="http://www.w3.org/2000/svg" width="500" height="500">
<path d="M0 0 C165 0 330 0 500 0 C500 165 500 330 500 500 C335 500 170 500 0 500 C0 335 0 170 0 0 Z " fill="#000000" transform="translate(0,0)"/>
<path d="M0 0 C2.29753979 -0.01904682 4.59505412 -0.04140799 6.89253235 -0.06681824 C13.11214069 -0.12449224 19.33079766 -0.13108977 25.55063367 -0.12475991 C30.75633464 -0.12344715 35.96183862 -0.14549524 41.16748756 -0.16692036 C54.16166197 -0.21926321 67.1552916 -0.22058176 80.14953011 -0.19974931 C91.39553169 -0.18345259 102.63996977 -0.23625937 113.88561929 -0.32156847 C125.46884173 -0.40874858 137.05125198 -0.44573312 148.6348061 -0.43401116 C155.12368418 -0.42808634 161.61103637 -0.4413299 168.0996418 -0.50451088 C174.2099427 -0.56198689 180.31704508 -0.5556297 186.427351 -0.50224495 C188.65643898 -0.49312367 190.88575035 -0.50570523 193.11454773 -0.54283524 C208.68653975 -0.78395453 217.86659929 2.26710066 229.63848197 12.60611594 C231.87054039 14.54739795 234.2295533 16.28352591 236.63061523 18.0090332 C237.92099077 18.97994684 239.21016348 19.95246235 240.49780273 20.92700195 C241.1797168 21.44069336 241.86163086 21.95438477 242.56420898 22.48364258 C244.1682731 23.69233878 245.77075024 24.90314074 247.37280273 26.11450195 C246.93097656 28.03069336 246.93097656 28.03069336 246.48022461 29.9855957 C245.74020674 33.30064298 245.10443506 36.60934091 244.56225586 39.9621582 C238.61791098 75.4623091 238.61791098 75.4623091 224.76391602 85.70727539 C211.09741123 94.56006458 195.66473377 100.67284132 180.37280273 106.11450195 C183.10971473 108.90922157 185.79049351 111.58614418 188.93920898 113.91137695 C189.58438477 114.39123047 190.22956055 114.87108398 190.89428711 115.36547852 C191.56782227 115.86015625 192.24135742 116.35483398 192.93530273 116.86450195 C194.35330169 117.91654458 195.77127011 118.96862836 197.18920898 120.02075195 C198.24132568 120.79805664 198.24132568 120.79805664 199.31469727 121.59106445 C202.34510394 123.83421245 205.35908107 126.09901781 208.37280273 128.36450195 C209.34217773 129.0915332 210.31155273 129.81856445 211.31030273 130.56762695 C211.99092773 131.0780957 212.67155273 131.58856445 213.37280273 132.11450195 C211.61559714 138.98617588 209.55338625 145.71218851 207.27807617 152.42993164 C205.93222999 156.4113097 204.65267784 160.40459171 203.43530273 164.42700195 C202.95577148 165.97967773 202.95577148 165.97967773 202.46655273 167.5637207 C201.8697476 169.50120595 201.27592095 171.43965795 200.69702148 173.38256836 C199.96082239 175.84066628 199.1997619 178.29006262 198.43530273 180.73950195 C198.20657471 181.52236572 197.97784668 182.30522949 197.7421875 183.11181641 C197.50814209 183.84746826 197.27409668 184.58312012 197.03295898 185.34106445 C196.83323486 185.99671387 196.63351074 186.65236328 196.42773438 187.32788086 C194.93815527 189.85061631 192.89234658 190.60557405 190.37280273 192.11450195 C189.32812836 192.91610245 188.28345398 193.71770294 187.2071228 194.54359436 C148.28849887 224.36460377 98.64541382 217.82198374 52.42853236 216.77111685 C40.73093209 216.50991508 29.03295879 216.38654223 17.33315015 216.27194488 C-6.65685934 216.03401997 -30.64169214 215.63171865 -54.62719727 215.11450195 C-54.32990377 213.54616298 -54.02795384 211.97870635 -53.72412109 210.41162109 C-53.55648758 209.53864883 -53.38885406 208.66567657 -53.21614075 207.76625061 C-52.28196546 203.56007778 -50.80798861 199.58647296 -49.31469727 195.55200195 C-47.10883231 189.42831671 -45.02079845 183.31628328 -43.25219727 177.05200195 C-41.11009209 169.49265695 -38.63747239 162.05892477 -36.12719727 154.61450195 C-33.66697033 147.31423052 -31.22791778 140.02704433 -29.12719727 132.61450195 C-27.0264722 125.2019435 -24.58711056 117.9148898 -22.12719727 110.61450195 C-19.4885681 102.77931791 -16.9185442 94.95742854 -14.66162109 87.00341797 C-11.00094248 74.27285875 -6.72747274 61.70897257 -2.62719727 49.11450195 C0.97186736 49.72965213 3.10974872 51.20363884 5.97045898 53.4309082 C6.85000244 54.10959961 7.7295459 54.78829102 8.63574219 55.48754883 C10.02152466 56.57132813 10.02152466 56.57132813 11.43530273 57.67700195 C13.32525161 59.13751272 15.21587057 60.5971568 17.10717773 62.0559082 C18.0140332 62.75731934 18.92088867 63.45873047 19.85522461 64.18139648 C24.29210627 67.58822629 28.81584457 70.87020387 33.37280273 74.11450195 C32.18240178 80.99348816 30.40562178 87.38138705 27.99780273 93.92700195 C27.36320003 95.69589198 26.73038228 97.4654234 26.09936523 99.2355957 C25.6473877 100.50185791 25.6473877 100.50185791 25.1862793 101.79370117 C23.8267812 105.67226927 22.64085925 109.59712577 21.45874023 113.5324707 C20.01275367 118.3021458 18.50771258 123.05222919 16.99780273 127.80200195 C16.69632324 128.75083252 16.39484375 129.69966309 16.08422852 130.67724609 C13.98639864 137.25354514 11.83667651 143.81077513 9.59008789 150.33789062 C6.9224591 158.19825446 4.72218491 166.12660255 2.37280273 174.11450195 C53.19280273 173.78450195 104.01280273 173.45450195 156.37280273 173.11450195 C165.18877756 146.71359663 165.18877756 146.71359663 173.37280273 120.11450195 C137.07280273 120.11450195 100.77280273 120.11450195 63.37280273 120.11450195 C66.70613607 107.89227973 66.70613607 107.89227973 68.37280273 103.61450195 C70.15117602 98.88580056 71.51839241 94.12686892 72.75952148 89.23168945 C73.37280273 87.11450195 73.37280273 87.11450195 74.37280273 86.11450195 C75.81494273 86.0189216 77.26174353 85.99261801 78.70704651 85.99424744 C80.11006516 85.99218544 80.11006516 85.99218544 81.54142761 85.99008179 C82.57576431 85.99367706 83.61010101 85.99727234 84.67578125 86.00097656 C85.75857361 86.00083054 86.84136597 86.00068451 87.95697021 86.00053406 C91.55523648 86.00123372 95.15345171 86.00902862 98.75170898 86.0168457 C101.23892692 86.01870969 103.72614522 86.02013368 106.21336365 86.02113342 C112.10301464 86.02456845 117.99264664 86.03245918 123.88228983 86.04248291 C131.24305647 86.05473949 138.60382538 86.06012404 145.96459961 86.06567383 C159.10067672 86.07641381 172.23673856 86.09330106 185.37280273 86.11450195 C185.59214478 84.73089478 185.59214478 84.73089478 185.81591797 83.31933594 C188.29989074 69.02424142 194.71378142 54.50918822 199.37280273 41.11450195 C108.62280273 41.11450195 17.87280273 41.11450195 -75.62719727 41.11450195 C-72.95037028 38.43767496 -70.73170778 36.32672947 -67.74829102 34.15356445 C-67.0012793 33.60651855 -66.25426758 33.05947266 -65.48461914 32.49584961 C-64.68604492 31.91625488 -63.8874707 31.33666016 -63.06469727 30.73950195 C-61.35498184 29.48961139 -59.64534883 28.23960809 -57.93579102 26.98950195 C-57.05906738 26.35012695 -56.18234375 25.71075195 -55.27905273 25.05200195 C-51.05077511 21.96273559 -46.83980829 18.85007791 -42.62719727 15.73950195 C-38.25870946 12.51490389 -38.25870946 12.51490389 -36.0443182 10.94779491 C-33.6018458 9.17883499 -33.6018458 9.17883499 -31.57087803 7.07638264 C-22.36081775 -1.28637758 -11.7842149 -0.05038442 0 0 Z " fill="#FAFA02" transform="translate(165.627197265625,141.885498046875)"/>
</svg>
