<svg width="88" height="88" viewBox="0 0 88 88" fill="none" xmlns="http://www.w3.org/2000/svg">
<path fill-rule="evenodd" clip-rule="evenodd" d="M28.5093 55.7543L49.7474 25.4231C51.6314 22.7325 55.3398 22.0786 58.0304 23.9626C60.7209 25.8466 61.3748 29.555 59.4909 32.2456L38.2527 62.5768C36.3688 65.2673 32.6604 65.9212 29.9698 64.0373C27.2792 62.1533 26.6253 58.4449 28.5093 55.7543ZM62.3568 17.7839C68.4598 22.0572 69.943 30.469 65.6696 36.572L44.4315 66.9032C40.1581 73.0062 31.7464 74.4894 25.6434 70.216C19.5404 65.9426 18.0572 57.5309 22.3305 51.4279L43.5687 21.0967C47.842 14.9937 56.2538 13.5105 62.3568 17.7839Z" fill="black"/>
</svg>
