<svg width="128" height="128" viewBox="0 0 128 128" fill="none" xmlns="http://www.w3.org/2000/svg">
<g clip-path="url(#clip0_271_5473)">
<mask id="mask0_271_5473" style="mask-type:luminance" maskUnits="userSpaceOnUse" x="0" y="0" width="128" height="128">
<path d="M128 0H0V128H128V0Z" fill="white"/>
</mask>
<g mask="url(#mask0_271_5473)">
<path d="M64.0004 126.578C98.5608 126.578 126.578 98.5608 126.578 63.9997C126.578 29.4389 98.5608 1.42188 64.0004 1.42188C29.4396 1.42188 1.42261 29.4389 1.42261 63.9997C1.42261 98.5608 29.4396 126.578 64.0004 126.578Z" fill="#1A0C6D"/>
<path fill-rule="evenodd" clip-rule="evenodd" d="M52.3362 64.001V34.0723H36.7927V64.001V93.9296H83.4232V78.965H67.8797V64.001H83.4232V49.0367H75.6379V34.0723H60.3908V41.5674H67.8526V64.001H60.0674V78.965H52.3362V64.001ZM83.4232 49.0367H91.208V34.0723H83.4232V49.0367Z" fill="white"/>
</g>
</g>
<defs>
<clipPath id="clip0_271_5473">
<rect width="128" height="128" fill="white"/>
</clipPath>
</defs>
</svg>
