<?xml version="1.0" standalone="no"?>
<!DOCTYPE svg PUBLIC "-//W3C//DTD SVG 20010904//EN"
 "http://www.w3.org/TR/2001/REC-SVG-20010904/DTD/svg10.dtd">
<svg version="1.0" xmlns="http://www.w3.org/2000/svg"
 width="960.000000pt" height="1098.000000pt" viewBox="0 0 960.000000 1098.000000"
 preserveAspectRatio="xMidYMid meet">

<g transform="translate(0.000000,1098.000000) scale(0.100000,-0.100000)"
fill="#FFFFFF" stroke="none">
<path d="M0 5495 l0 -5485 4110 0 4110 0 0 1370 0 1370 -1365 0 -1365 0 0
1370 0 1370 1370 0 1370 0 0 1375 0 1375 685 0 685 0 0 1370 0 1370 -685 0
-685 0 0 -1370 0 -1370 -685 0 -685 0 0 1370 0 1370 -1345 0 -1345 0 0 -685 0
-685 660 0 660 0 0 -2060 0 -2060 -690 0 -690 0 0 -1370 0 -1370 -685 0 -685
0 0 4115 0 4115 -1370 0 -1370 0 0 -5485z"/>
</g>
</svg>
