<svg width="33" height="32" viewBox="0 0 33 32" fill="none" xmlns="http://www.w3.org/2000/svg">
<g clip-path="url(#clip0_13645_50581)">
<path d="M16.0249 0C24.867 0 32.0249 7.15789 32.0249 16C32.0249 24.8421 24.867 32 16.0249 32C7.1828 32 0.0249023 24.8421 0.0249023 16C0.0249023 7.15789 7.1828 0 16.0249 0Z" fill="url(#paint0_linear_13645_50581)"/>
<path fill-rule="evenodd" clip-rule="evenodd" d="M8.97792 22.9362L11.1053 21.6509L8.97792 18.7035V22.9362ZM11.4821 22.1606C10.8837 22.5152 9.26601 23.4902 9.26601 23.4902L15.0278 27.0138L11.4821 22.1384V22.1606ZM17.1109 26.9694L22.8283 23.4459L20.6123 22.1163L17.1109 26.9694ZM20.989 21.6066L23.1164 22.8919V18.6592L20.989 21.6066ZM23.2494 17.5068C23.2494 17.5068 23.3602 17.4404 23.4488 17.4404C23.6261 17.4404 23.7591 17.5733 23.7591 17.7506V23.3351C23.7591 23.3351 23.7591 23.3573 23.7591 23.3794C23.7591 23.3794 23.7591 23.4016 23.7591 23.4237C23.7591 23.5345 23.6926 23.6232 23.604 23.6897L16.2023 28.2548C16.2023 28.2548 15.9807 28.3212 15.8699 28.2548L8.51255 23.734C8.51255 23.734 8.35742 23.5789 8.35742 23.4681C8.35742 23.4681 8.35742 23.4681 8.35742 23.4459C8.35742 23.4459 8.35742 23.4459 8.35742 23.4237V17.7949C8.35742 17.7063 8.35742 17.6398 8.44606 17.5733C8.53471 17.4625 8.68983 17.4404 8.8228 17.5068C8.95576 17.5733 9.7757 18.7922 9.7757 18.7922L16.0472 27.4127L22.2522 18.8365L23.2494 17.5512V17.5068ZM8.97792 9.08579V14.9805L11.615 10.6814L8.97792 9.08579ZM23.1164 9.01931L20.4571 10.637L23.1164 14.9805V9.01931ZM20.1247 10.1052C20.8117 9.68413 22.8283 8.46529 22.8283 8.46529L16.8893 4.8531L20.1026 10.1052H20.1247ZM15.1386 4.91958L9.26601 8.53177L11.9474 10.1495L15.1607 4.91958H15.1386ZM22.917 15.8448L16.0472 4.63149L9.17737 15.8448C9.17737 15.8448 8.9336 16.2658 8.66767 16.2658C8.51255 16.2658 8.35742 16.1329 8.35742 15.9556V8.62041V8.57609V8.53177C8.35742 8.42097 8.4239 8.33233 8.51255 8.26584L15.9142 3.72291C15.9142 3.72291 16.1358 3.65642 16.2466 3.72291L23.604 8.22152C23.604 8.22152 23.7591 8.37665 23.7591 8.48745V15.9113C23.7591 16.1329 23.6704 16.1994 23.5596 16.1994C23.1386 16.1994 23.0056 15.9556 22.9391 15.8226L22.917 15.8448Z" fill="#88ACFF"/>
<path d="M16.2688 30.9584C24.4199 30.9584 31.0278 24.3506 31.0278 16.1994C31.0278 8.04826 24.4199 1.44043 16.2688 1.44043C8.1176 1.44043 1.50977 8.04826 1.50977 16.1994C1.50977 24.3506 8.1176 30.9584 16.2688 30.9584Z" stroke="url(#paint1_linear_13645_50581)" stroke-width="0.554017"/>
<path d="M15.6703 21.3409V20.4988C13.831 20.388 12.9445 19.28 12.9224 18.1055H13.8088C13.8531 18.9476 14.4736 19.5902 15.6703 19.7232V16.2661L15.1606 16.1332C14.119 15.8451 13.144 15.2246 13.144 13.8949C13.144 12.4545 14.2077 11.6567 15.6481 11.5459V10.6816H16.3794V11.5237C17.7977 11.6345 18.8836 12.4988 18.9279 13.8285H18.0415C18.0415 13.075 17.421 12.4323 16.3794 12.3215V15.5791L16.8448 15.69C18.2631 16.0667 19.0609 16.7093 19.0609 18.039C19.0609 19.5681 17.9085 20.388 16.3794 20.4988V21.3409H15.6481H15.6703ZM15.2714 15.2467C15.2714 15.2467 15.5595 15.3354 15.6703 15.3797V12.3215C14.6952 12.4102 14.0304 12.942 14.0304 13.8285C14.0304 14.4711 14.4293 14.9586 15.2936 15.2467H15.2714ZM16.601 16.4877C16.601 16.4877 16.4681 16.4656 16.4237 16.4434V19.7232C17.5096 19.6345 18.2188 19.0584 18.2188 18.1055C18.2188 17.3298 17.8199 16.8423 16.601 16.4877Z" fill="#88ACFF"/>
</g>
<defs>
<linearGradient id="paint0_linear_13645_50581" x1="-4.44177" y1="31.6267" x2="53.6819" y2="-13.4435" gradientUnits="userSpaceOnUse">
<stop offset="0.331609" stop-color="#19163B"/>
<stop offset="1" stop-color="#4C09A2"/>
</linearGradient>
<linearGradient id="paint1_linear_13645_50581" x1="3.55501" y1="20.833" x2="29.1207" y2="11.5359" gradientUnits="userSpaceOnUse">
<stop stop-color="#29BCFA"/>
<stop offset="0.43" stop-color="#6464E4"/>
<stop offset="1" stop-color="#B45AFA"/>
</linearGradient>
<clipPath id="clip0_13645_50581">
<rect width="32" height="32" fill="white" transform="translate(0.0249023)"/>
</clipPath>
</defs>
</svg>
