<svg version="1.0" xmlns="http://www.w3.org/2000/svg"
 width="64.000000pt" height="64.000000pt" viewBox="0 0 64.000000 64.000000"
 preserveAspectRatio="xMidYMid meet">

<g transform="translate(0.000000,64.000000) scale(0.100000,-0.100000)"
fill="#000000" stroke="none">
<path d="M258 541 c-35 -12 -98 -50 -98 -60 0 -5 18 -20 40 -35 l40 -26 12 26
c11 23 13 24 24 9 12 -15 16 -14 58 14 24 17 47 31 51 31 3 0 4 -22 2 -50 -2
-27 0 -47 4 -44 17 10 9 -10 -13 -34 l-23 -25 22 5 c16 4 24 1 28 -13 9 -27
20 -23 23 7 5 61 80 190 99 170 4 -3 9 -33 11 -66 4 -50 0 -69 -23 -115 -27
-55 -48 -68 -73 -43 -9 9 -12 9 -12 1 0 -7 5 -15 11 -18 6 -4 8 -13 5 -21 -3
-8 -2 -13 2 -13 20 3 25 -2 12 -12 -11 -8 -9 -9 10 -4 31 9 73 47 61 55 -11 6
-11 50 0 50 3 0 11 18 18 40 12 40 9 85 -11 147 -9 32 -10 32 -38 18 -15 -8
-46 -36 -69 -62 -22 -27 -41 -45 -41 -41 0 4 14 23 31 42 l30 35 -32 16 c-37
20 -123 28 -161 16z"/>
<path d="M64 476 c-7 -30 13 -131 30 -148 7 -7 19 -28 26 -45 14 -32 40 -53
40 -33 0 6 9 10 20 10 11 0 20 5 20 10 0 12 -46 14 -53 3 -2 -5 -2 -3 -1 4 2
7 -2 15 -7 19 -19 12 -59 108 -59 143 l0 33 28 -17 c47 -30 78 -64 102 -111
24 -50 40 -46 40 10 0 44 -82 117 -157 140 -18 6 -24 2 -29 -18z"/>
<path d="M571 337 c-6 -16 -11 -37 -11 -47 0 -47 -64 -155 -87 -146 -7 3 -12
0 -10 -6 1 -6 -14 -20 -33 -32 -27 -16 -51 -21 -110 -21 -100 0 -156 31 -209
116 -36 59 -59 72 -53 29 8 -50 74 -130 137 -163 57 -31 193 -31 250 0 101 54
177 195 147 273 l-10 25 -11 -28z"/>
<path d="M465 310 c-16 -7 -17 -9 -3 -9 9 -1 20 4 23 9 7 11 7 11 -20 0z"/>
<path d="M536 305 c-3 -8 -1 -15 4 -15 6 0 10 7 10 15 0 8 -2 15 -4 15 -2 0
-6 -7 -10 -15z"/>
<path d="M306 294 c-3 -8 -1 -25 6 -37 11 -21 11 -21 18 -2 4 11 3 28 -2 38
-11 21 -14 21 -22 1z"/>
<path d="M198 253 c-23 -27 -30 -43 -20 -43 11 0 46 50 39 56 -2 2 -11 -4 -19
-13z"/>
<path d="M390 236 c0 -8 -6 -16 -12 -19 -10 -4 -10 -7 0 -18 11 -12 14 -12 22
1 13 20 13 50 0 50 -5 0 -10 -6 -10 -14z"/>
<path d="M523 238 c-19 -24 -24 -38 -15 -38 5 0 14 11 20 25 13 27 10 32 -5
13z"/>
<path d="M247 228 c-6 -21 4 -48 19 -48 8 0 14 7 14 15 0 8 -5 15 -11 15 -6 0
-9 7 -5 15 3 8 1 15 -3 15 -5 0 -11 -6 -14 -12z"/>
<path d="M115 218 c42 -72 100 -114 178 -124 47 -7 112 7 142 31 17 13 14 13
-20 -1 -92 -37 -235 -6 -256 56 -6 17 -20 35 -31 41 -16 9 -19 8 -13 -3z"/>
<path d="M315 190 c-3 -5 3 -10 15 -10 12 0 18 5 15 10 -3 6 -10 10 -15 10 -5
0 -12 -4 -15 -10z"/>
<path d="M315 150 c3 -5 12 -7 20 -3 21 7 19 13 -6 13 -11 0 -18 -4 -14 -10z"/>
</g>
</svg>
