<svg xmlns="http://www.w3.org/2000/svg" viewBox="0 0 31 31"><g fill="none" fill-rule="nonzero"><path fill="#A101F8" d="M26.417 25.627c-5.858 5.857-15.356 5.857-21.214 0s-5.857-15.356 0-21.214 15.356-5.857 21.214 0 5.857 15.356 0 21.214"></path><path fill="#FFF" d="M12.738 13.188c0-.617-.5-1.117-1.116-1.117h-1.537a6.497 6.497 0 0 1 11.054-.746 1.117 1.117 0 0 0 1.82-1.294 8.75 8.75 0 0 0-7.118-3.674 8.73 8.73 0 0 0-8.192 5.714H6.261a1.117 1.117 0 0 0 0 2.233h5.361c.616 0 1.116-.5 1.116-1.116M25.353 15.733h-5.361a1.117 1.117 0 0 0 0 2.233h1.537a6.497 6.497 0 0 1-11.054.746 1.117 1.117 0 0 0-1.82 1.294 8.75 8.75 0 0 0 7.117 3.674 8.73 8.73 0 0 0 8.193-5.714h1.388a1.117 1.117 0 0 0 0-2.233"></path></g></svg>
