<svg width="1200" height="1200" viewBox="0 0 1200 1200" fill="none" xmlns="http://www.w3.org/2000/svg">
<rect width="1200" height="1200" rx="600" fill="#A28CFF"/>
<path d="M449.807 429.668C467.482 570.108 338.098 773.412 278.712 860.825C267.58 877.211 273.644 882.333 288.911 869.709C436.716 747.486 612.789 660.857 729.241 677.775C733.709 678.425 734.755 684.167 730.942 686.582C681.201 718.081 598.481 778.835 578.256 829.924C568.986 853.338 563.91 897.415 563.443 928.962C563.267 940.865 573.146 950 585.05 950H927.666C939.815 950 949.907 940.471 949.989 928.322C952.063 622.395 648.327 353.987 492.623 256.225C468.837 238.436 426.972 248.22 449.807 429.668Z" fill="black"/>
</svg>
