<?xml version="1.0" encoding="UTF-8"?>
<svg version="1.1" xmlns="http://www.w3.org/2000/svg" width="512" height="512">
<path d="M0 0 C0.90186035 0.17692383 1.8037207 0.35384766 2.73291016 0.53613281 C9.20599895 1.83501287 15.60888488 3.34657126 22 5 C22.82000488 5.20963379 23.64000977 5.41926758 24.48486328 5.63525391 C58.17024255 14.44485883 88.96649009 31.29229379 116 53 C117.50046875 54.19109375 117.50046875 54.19109375 119.03125 55.40625 C132.89778302 66.7515952 146.2899831 79.6029281 157 94 C157.45971191 94.59973633 157.91942383 95.19947266 158.39306641 95.81738281 C183.7457788 128.9479423 200.63105558 166.93602242 208 208 C208.16226074 208.83128418 208.32452148 209.66256836 208.49169922 210.51904297 C213.76694663 238.13651472 213.55756833 270.45402542 208 298 C207.82307617 298.90186035 207.64615234 299.8037207 207.46386719 300.73291016 C206.16498713 307.20599895 204.65342874 313.60888488 203 320 C202.79036621 320.82000488 202.58073242 321.64000977 202.36474609 322.48486328 C193.55514117 356.17024255 176.70770621 386.96649009 155 414 C154.2059375 415.0003125 153.411875 416.000625 152.59375 417.03125 C141.2484048 430.89778302 128.3970719 444.2899831 114 455 C113.10039551 455.68956787 113.10039551 455.68956787 112.18261719 456.39306641 C79.0520577 481.7457788 41.06397758 498.63105558 0 506 C-0.83128418 506.16226074 -1.66256836 506.32452148 -2.51904297 506.49169922 C-30.13651472 511.76694663 -62.45402542 511.55756833 -90 506 C-90.90186035 505.82307617 -91.8037207 505.64615234 -92.73291016 505.46386719 C-99.20599895 504.16498713 -105.60888488 502.65342874 -112 501 C-112.82000488 500.79036621 -113.64000977 500.58073242 -114.48486328 500.36474609 C-148.17024255 491.55514117 -178.96649009 474.70770621 -206 453 C-207.0003125 452.2059375 -208.000625 451.411875 -209.03125 450.59375 C-222.89778302 439.2484048 -236.2899831 426.3970719 -247 412 C-247.68956787 411.10039551 -247.68956787 411.10039551 -248.39306641 410.18261719 C-273.7457788 377.0520577 -290.63105558 339.06397758 -298 298 C-298.16226074 297.16871582 -298.32452148 296.33743164 -298.49169922 295.48095703 C-303.76694663 267.86348528 -303.55756833 235.54597458 -298 208 C-297.82307617 207.09813965 -297.64615234 206.1962793 -297.46386719 205.26708984 C-296.16498713 198.79400105 -294.65342874 192.39111512 -293 186 C-292.79036621 185.17999512 -292.58073242 184.35999023 -292.36474609 183.51513672 C-283.55514117 149.82975745 -266.70770621 119.03350991 -245 92 C-244.2059375 90.9996875 -243.411875 89.999375 -242.59375 88.96875 C-231.2484048 75.10221698 -218.3970719 61.7100169 -204 51 C-203.40026367 50.54028809 -202.80052734 50.08057617 -202.18261719 49.60693359 C-169.0520577 24.2542212 -131.06397758 7.36894442 -90 0 C-89.16871582 -0.16226074 -88.33743164 -0.32452148 -87.48095703 -0.49169922 C-59.86348528 -5.76694663 -27.54597458 -5.55756833 0 0 Z " fill="#FDF2C6" transform="translate(301,3)"/>
<path d="M0 0 C1.64756538 -0.00642769 1.64756538 -0.00642769 3.32841492 -0.01298523 C5.64561272 -0.01871168 7.9628285 -0.01924126 10.2800293 -0.01489258 C13.80223702 -0.01173843 17.32359941 -0.03519383 20.84570312 -0.06054688 C23.1054677 -0.06282079 25.36523451 -0.06352293 27.625 -0.0625 C29.18798576 -0.07631462 29.18798576 -0.07631462 30.782547 -0.09040833 C42.49897021 -0.01726162 52.61071077 3.29410119 61.53125 11.05859375 C67.2532307 17.00199529 71.32189118 24.15837288 75.5078125 31.21484375 C75.98694092 31.97716309 76.46606934 32.73948242 76.9597168 33.52490234 C78.21362137 35.76761039 79.11613351 37.80849335 80.02661133 40.18994141 C81.8519713 44.51591462 83.69762451 48.41178809 87.51171875 51.30078125 C95.05261802 53.810006 103.51158304 52.80436456 111.32421875 52.42578125 C115.60117063 52.28778415 119.87767182 52.19130103 124.15625 52.12109375 C125.6787738 52.0918557 125.6787738 52.0918557 127.23205566 52.06202698 C137.87624157 52.01530816 145.62810576 54.94052017 153.59765625 62.1640625 C159.43148556 68.67652093 163.91009987 76.0083611 168.38671875 83.48828125 C169.61800289 85.53414715 170.84977083 87.57972197 172.08203125 89.625 C172.67016602 90.60259277 173.25830078 91.58018555 173.86425781 92.58740234 C175.26219428 94.88981283 176.68193631 97.17355819 178.12890625 99.4453125 C178.83273437 100.55261719 179.5365625 101.65992188 180.26171875 102.80078125 C180.8546875 103.71859375 181.44765625 104.63640625 182.05859375 105.58203125 C185.54813398 112.11084845 186.76694769 119.23136539 184.98095703 126.44433594 C183.22345301 131.76389168 180.99412837 136.40425 178.07421875 141.17578125 C177.43746216 142.24566284 177.43746216 142.24566284 176.7878418 143.3371582 C174.3341483 147.42576267 171.78163942 151.43623631 169.15234375 155.4140625 C168.59861084 156.26049316 168.04487793 157.10692383 167.47436523 157.97900391 C166.39313419 159.62316615 165.29673983 161.25747882 164.18383789 162.88037109 C161.3054 167.24763032 161.3054 167.24763032 160.3359375 172.29296875 C162.03622668 176.64254571 164.43765235 180.35579324 167.01171875 184.23828125 C168.10535017 185.93022518 169.19778451 187.62294343 170.2890625 189.31640625 C171.10479736 190.57420898 171.10479736 190.57420898 171.93701172 191.85742188 C174.20101738 195.37031625 176.4043749 198.91661863 178.57421875 202.48828125 C179.10982422 203.34957642 179.10982422 203.34957642 179.65625 204.22827148 C183.11979521 209.95061432 185.93877839 215.88954863 185.94921875 222.67578125 C185.97822266 223.92488281 185.97822266 223.92488281 186.0078125 225.19921875 C184.62668426 233.83398902 180.03013512 241.17322013 175.38671875 248.42578125 C174.22654808 250.26431381 173.06639198 252.10285558 171.90625 253.94140625 C171.04700928 255.29395508 171.04700928 255.29395508 170.17041016 256.67382812 C168.64193087 259.09455776 167.13892421 261.52840567 165.6484375 263.97265625 C165.21096191 264.68663574 164.77348633 265.40061523 164.32275391 266.13623047 C163.52294426 267.44276348 162.72670599 268.75149357 161.93505859 270.06298828 C158.10140004 276.27091089 153.95141566 281.94967163 147.51171875 285.61328125 C146.30515625 286.31904297 146.30515625 286.31904297 145.07421875 287.0390625 C138.34002151 290.3548334 132.58905603 290.56930474 125.20703125 290.49609375 C124.12791473 290.49326385 123.04879822 290.49043396 121.9369812 290.48751831 C118.50344576 290.47635785 115.07017484 290.45126055 111.63671875 290.42578125 C109.30338919 290.41574612 106.97005553 290.4066212 104.63671875 290.3984375 C98.92829575 290.37643204 93.22002616 290.34299552 87.51171875 290.30078125 C87.24834717 291.01468018 86.98497559 291.7285791 86.71362305 292.46411133 C85.46390177 295.41363632 83.98078313 297.97354833 82.28125 300.6875 C81.64251953 301.70908203 81.00378906 302.73066406 80.34570312 303.78320312 C79.34506836 305.3697168 79.34506836 305.3697168 78.32421875 306.98828125 C77.67646484 308.02662109 77.02871094 309.06496094 76.36132812 310.13476562 C59.08916678 337.6563414 59.08916678 337.6563414 42.95455933 341.84036255 C34.60387664 343.41427225 25.87614872 342.98756724 17.41577148 342.89770508 C13.82131077 342.86325338 10.22929697 342.87712864 6.63476562 342.89648438 C4.31900009 342.88958784 2.00324081 342.8799172 -0.3125 342.8671875 C-1.3711174 342.87214737 -2.4297348 342.87710724 -3.52043152 342.88221741 C-15.22968223 342.69954081 -24.87354637 338.98895879 -33.13745117 330.63330078 C-38.06238707 325.1663513 -41.81482004 319.24754063 -45.55078125 312.92578125 C-46.13666016 311.94867188 -46.72253906 310.9715625 -47.32617188 309.96484375 C-48.43205377 308.11884334 -49.53481851 306.27096827 -50.63305664 304.42041016 C-51.24528076 303.39093262 -51.85750488 302.36145508 -52.48828125 301.30078125 C-52.8720694 300.46036285 -53.25585754 299.61994446 -53.65127563 298.75405884 C-56.15710838 293.48516331 -56.15710838 293.48516331 -60.84474182 290.41793823 C-63.75605523 290.11115069 -66.51654192 290.1235703 -69.44140625 290.24609375 C-70.49680603 290.24753387 -71.55220581 290.248974 -72.6395874 290.25045776 C-76.00818002 290.26193291 -79.37082983 290.33999245 -82.73828125 290.42578125 C-86.09041929 290.47985578 -89.44159721 290.51930761 -92.79412842 290.53683472 C-94.87584287 290.55094663 -96.95757126 290.58729942 -99.03839111 290.64993286 C-108.68319147 290.77598424 -116.79275276 287.82392262 -124.23046875 281.6171875 C-129.22012418 276.49804274 -132.78163693 270.36964207 -136.48828125 264.30078125 C-137.09607422 263.31464844 -137.70386719 262.32851563 -138.33007812 261.3125 C-140.3523316 258.02360398 -142.36097411 254.72685608 -144.36328125 251.42578125 C-145.00604004 250.3682666 -145.64879883 249.31075195 -146.31103516 248.22119141 C-153.21208575 236.70008433 -158.21241212 226.97002658 -155.48828125 213.30078125 C-153.73686637 208.27619073 -150.85626351 203.88418378 -147.92675781 199.47509766 C-146.3500427 197.09182801 -144.83449258 194.67588307 -143.32421875 192.25 C-141.2651309 188.94835913 -139.18944807 185.65883528 -137.08984375 182.3828125 C-136.63770508 181.66818848 -136.18556641 180.95356445 -135.71972656 180.21728516 C-134.70742365 178.64183356 -133.64708213 177.09735149 -132.57421875 175.5625 C-131.16700625 172.63165094 -131.64028546 171.40109522 -132.48828125 168.30078125 C-133.55454683 166.06506746 -133.55454683 166.06506746 -134.9296875 163.89453125 C-135.42726563 163.07452637 -135.92484375 162.25452148 -136.4375 161.40966797 C-137.23607422 160.11826904 -137.23607422 160.11826904 -138.05078125 158.80078125 C-138.5921875 157.9102002 -139.13359375 157.01961914 -139.69140625 156.10205078 C-142.06986047 152.19751593 -144.47318583 148.31009288 -146.921875 144.44921875 C-153.1128393 134.6419823 -158.44993321 125.95601947 -156.03759766 114.08251953 C-154.05391017 106.7866359 -150.53499487 100.97335455 -146.42578125 94.67578125 C-145.06997855 92.5601098 -143.71451057 90.44422382 -142.359375 88.328125 C-141.36719971 86.79067627 -141.36719971 86.79067627 -140.35498047 85.22216797 C-138.25458203 81.93504167 -136.23259825 78.60640051 -134.21923828 75.265625 C-127.90192771 64.8612325 -121.81831647 58.28064924 -110.48828125 53.30078125 C-107.14851483 52.48458772 -104.22233719 52.21808267 -100.79663086 52.4128418 C-95.76062176 52.66193593 -90.73086321 52.79904476 -85.68969727 52.89672852 C-83.52505011 52.9574468 -81.36107307 53.0521718 -79.19946289 53.18188477 C-68.62802091 53.84532591 -68.62802091 53.84532591 -58.48828125 51.30078125 C-53.24116713 46.60082629 -50.46328565 40.25785233 -47.69737244 33.901474 C-45.73958793 29.69038055 -43.21345435 25.86762329 -40.67578125 21.98828125 C-40.00617622 20.92725189 -40.00617622 20.92725189 -39.32304382 19.8447876 C-35.30766517 13.49617605 -30.40378487 7.7071752 -23.48828125 4.48828125 C-22.70453125 4.11058594 -21.92078125 3.73289062 -21.11328125 3.34375 C-13.89496149 0.47575688 -7.73193003 -0.00672377 0 0 Z " fill="#D97707" transform="translate(241.48828125,84.69921875)"/>
<path d="M0 0 C34.61957712 -3.48756571 34.61957712 -3.48756571 43.05761719 1.98193359 C47.56026793 7.05108473 49.89698236 12.97358417 52.03271484 19.34179688 C53.33068223 22.90875015 55.13596749 25.50965718 57.375 28.5625 C60.07446596 32.35582539 60.07446596 32.35582539 59.73168945 35.32104492 C58.93675377 38.23156519 57.81649257 40.39723699 56.26953125 42.984375 C55.43518555 44.38816406 55.43518555 44.38816406 54.58398438 45.8203125 C53.99939453 46.78710938 53.41480469 47.75390625 52.8125 48.75 C52.24724609 49.70132813 51.68199219 50.65265625 51.09960938 51.6328125 C49.96456716 53.53105033 48.80518278 55.41494657 47.62182617 57.28344727 C45.95657375 59.91985773 45.95657375 59.91985773 44.91918945 62.63647461 C43.56790268 65.55127229 42.57403409 67.04352706 40 69 C33.75881864 71.08819721 27.07583924 71.03814592 20.5625 71.0625 C19.65293549 71.07603516 18.74337097 71.08957031 17.8062439 71.10351562 C10.29622694 71.11952365 3.06177446 71.12847443 -3.25976562 66.73388672 C-8.2375145 61.17846606 -11.20865704 54.82058556 -13.82177734 47.88671875 C-15.19625183 44.51917081 -16.99107884 41.77679787 -19.19067383 38.89648438 C-20.43730798 35.97526142 -19.80759753 34.02589017 -19 31 C-17.57299805 28.22680664 -17.57299805 28.22680664 -15.76171875 25.41015625 C-15.10623047 24.37826172 -14.45074219 23.34636719 -13.77539062 22.28320312 C-13.08638672 21.22037109 -12.39738281 20.15753906 -11.6875 19.0625 C-10.33612476 16.94993147 -8.98583535 14.83666789 -7.63671875 12.72265625 C-7.03561279 11.79203369 -6.43450684 10.86141113 -5.81518555 9.90258789 C-3.78079582 6.64947968 -1.88510732 3.34158055 0 0 Z " fill="#FDF1C4" transform="translate(236,324)"/>
<path d="M0 0 C1.632091 -0.05974606 3.26575033 -0.08371391 4.89892578 -0.07836914 C5.76687775 -0.09122452 6.63482971 -0.1040799 7.52908325 -0.11732483 C9.3630591 -0.13453245 11.19723967 -0.13607115 13.03125 -0.12304688 C15.83056315 -0.11357168 18.62032442 -0.18385837 21.41845703 -0.26000977 C34.23875306 -0.40476587 34.23875306 -0.40476587 38.30249023 2.48071289 C39.8986418 4.8507804 40.89715331 7.17741399 41.96923828 9.82397461 C43.16637114 11.75482865 44.39621517 13.66566938 45.65283203 15.55834961 C46.90624521 17.56223902 48.15752414 19.56746485 49.40673828 21.57397461 C50.05578125 22.5884668 50.70482422 23.60295898 51.37353516 24.64819336 C51.98132813 25.62916992 52.58912109 26.61014648 53.21533203 27.62084961 C54.0456897 28.94101074 54.0456897 28.94101074 54.89282227 30.2878418 C56.23260613 33.44449292 56.09306819 34.60295458 54.96923828 37.82397461 C53.77833481 40.14293471 52.55853811 42.35425381 51.22314453 44.58569336 C50.85197006 45.21756058 50.48079559 45.8494278 50.09837341 46.5004425 C49.31579527 47.82944358 48.52975944 49.15641398 47.74047852 50.48144531 C46.53205728 52.51093886 45.3347846 54.5466868 44.13916016 56.58374023 C43.37613173 57.87643796 42.61248115 59.1687687 41.84814453 60.46069336 C41.3105526 61.37319099 41.3105526 61.37319099 40.76210022 62.30412292 C39.31069957 64.73470553 37.97995449 66.8132584 35.96923828 68.82397461 C4.00370368 73.37995765 4.00370368 73.37995765 -6.96533203 67.15991211 C-11.17304131 62.92681989 -13.22592295 57.86487804 -15.11425781 52.27807617 C-16.4759152 48.6319973 -18.60818907 45.66941904 -20.84326172 42.51147461 C-24.09535161 37.64956776 -24.09535161 37.64956776 -23.81005859 34.00292969 C-22.95887829 30.53074336 -21.71291045 28.2058104 -19.79248047 25.19897461 C-19.13699219 24.16256836 -18.48150391 23.12616211 -17.80615234 22.05834961 C-17.11714844 20.99100586 -16.42814453 19.92366211 -15.71826172 18.82397461 C-15.04085938 17.75663086 -14.36345703 16.68928711 -13.66552734 15.58959961 C-11.80081548 12.65855691 -9.92569159 9.73556557 -8.03076172 6.82397461 C-7.4799292 5.73656982 -6.92909668 4.64916504 -6.36157227 3.52880859 C-3.86214027 0.6282946 -3.55387795 0.40478605 0 0 Z " fill="#FDF2C6" transform="translate(333.03076171875,170.176025390625)"/>
<path d="M0 0 C0.93907196 -0.00542816 1.87814392 -0.01085632 2.84567261 -0.01644897 C17.95534337 0.04656701 17.95534337 0.04656701 23.83935547 3.60546875 C28.10555021 8.09805701 30.13319864 13.39664468 31.97900391 19.23388672 C33.30796596 23.05854536 35.39354404 26.21375059 37.625 29.5625 C38.71244926 31.30994534 39.79656065 33.05947984 40.875 34.8125 C40.5042334 35.45936768 40.1334668 36.10623535 39.75146484 36.77270508 C36.92881811 41.80560499 34.46621967 46.74002805 32.4140625 52.13671875 C29.38007763 59.18932694 26.33155763 65.36570896 19.875 69.8125 C13.2637627 72.10042231 6.29745568 72.10099138 -0.625 72.0625 C-1.97618927 72.07704727 -1.97618927 72.07704727 -3.35467529 72.09188843 C-17.79494319 72.07435787 -17.79494319 72.07435787 -22.6940918 67.31860352 C-24.50947509 64.22002186 -25.82805625 61.1573573 -27.125 57.8125 C-28.09299798 56.12188979 -29.09745604 54.45140125 -30.14453125 52.80859375 C-30.60923828 52.04869141 -31.07394531 51.28878906 -31.55273438 50.50585938 C-32.00970703 49.76142578 -32.46667969 49.01699219 -32.9375 48.25 C-33.41380859 47.47076172 -33.89011719 46.69152344 -34.38085938 45.88867188 C-36.25408905 42.8298538 -38.1349956 39.7975066 -40.125 36.8125 C-39.79524159 32.95625708 -38.43504977 30.2888755 -36.39453125 27.046875 C-35.83830078 26.15613281 -35.28207031 25.26539063 -34.70898438 24.34765625 C-34.12439453 23.42855469 -33.53980469 22.50945312 -32.9375 21.5625 C-32.37224609 20.65886719 -31.80699219 19.75523437 -31.22460938 18.82421875 C-30.08743611 17.01359924 -28.92706961 15.2173422 -27.74414062 13.4362793 C-26.07079508 10.88900842 -26.07079508 10.88900842 -25.06835938 8.19848633 C-20.61400616 -1.59972077 -9.31435267 -0.0414569 0 0 Z " fill="#FDF2C6" transform="translate(256.125,118.1875)"/>
<path d="M0 0 C1.89268848 -0.03661909 3.78511979 -0.09115 5.67675781 -0.1640625 C21.26391342 -0.75596254 21.26391342 -0.75596254 25.51074219 2.20678711 C27.1068428 4.58370238 28.09791641 6.91495439 29.16430664 9.56982422 C30.36045648 11.48969075 31.5903545 13.38881951 32.84790039 15.26904297 C34.10133497 17.26379832 35.35261363 19.2599099 36.60180664 21.25732422 C37.25084961 22.2634375 37.89989258 23.26955078 38.56860352 24.30615234 C39.17639648 25.28390625 39.78418945 26.26166016 40.41040039 27.26904297 C41.24075806 28.58134888 41.24075806 28.58134888 42.08789062 29.92016602 C43.46942661 33.32089409 43.1688698 35.06382473 42.16430664 38.56982422 C40.82910156 41.2512207 40.82910156 41.2512207 39.14477539 43.94091797 C38.5344043 44.92769531 37.9240332 45.91447266 37.29516602 46.93115234 C36.65385742 47.94628906 36.01254883 48.96142578 35.35180664 50.00732422 C34.09455341 52.02639312 32.83802502 54.04591357 31.58227539 56.06591797 C31.02306396 56.954646 30.46385254 57.84337402 29.88769531 58.7590332 C27.90608861 61.99096945 26.03170428 65.27067849 24.16430664 68.56982422 C-9.96594978 72.91033618 -9.96594978 72.91033618 -18.74017334 67.36651611 C-25.65143801 61.26148506 -29.37524768 52.16017646 -32.58520508 43.70776367 C-33.7116875 40.54550549 -33.7116875 40.54550549 -35.62133789 37.96899414 C-36.83569336 35.56982422 -36.83569336 35.56982422 -36.265625 33.18212891 C-34.53500178 30.02049865 -32.7928357 26.87438161 -30.95678711 23.77294922 C-30.58465591 23.13871033 -30.21252472 22.50447144 -29.82911682 21.85101318 C-29.04656959 20.51885279 -28.26235469 19.18767077 -27.4765625 17.85742188 C-26.2701103 15.81460384 -25.06909851 13.76866315 -23.86889648 11.72216797 C-23.1068417 10.42640974 -22.34448266 9.13083039 -21.58178711 7.83544922 C-21.04115883 6.91520966 -21.04115883 6.91520966 -20.48960876 5.97637939 C-15.85414629 -1.86073014 -8.47622415 0.12759434 0 0 Z " fill="#FDF2C5" transform="translate(159.835693359375,272.43017578125)"/>
<path d="M0 0 C0.91289795 -0.00043304 1.8257959 -0.00086609 2.76635742 -0.00131226 C17.38434368 0.12611746 17.38434368 0.12611746 23.22509766 3.73925781 C27.47655906 8.25378763 29.51063514 13.55217958 31.39160156 19.38525391 C32.73975952 23.12163867 34.88257584 26.10976132 37.1875 29.3125 C39.1796875 32.2109375 39.1796875 32.2109375 40.3125 34.9375 C39.21527433 39.16955192 37.47870561 42.63632684 35.1953125 46.34375 C34.58816406 47.33503906 33.98101562 48.32632813 33.35546875 49.34765625 C32.72253906 50.36730469 32.08960938 51.38695312 31.4375 52.4375 C30.81230469 53.45714844 30.18710937 54.47679687 29.54296875 55.52734375 C27.81302801 58.33986896 26.07867516 61.14757962 24.3125 63.9375 C23.764729 65.01676758 23.21695801 66.09603516 22.65258789 67.20800781 C20.17258878 70.10069326 19.85153536 70.36200029 16.3293457 70.84082031 C14.7173137 70.93429462 13.10282264 70.99031245 11.48828125 71.015625 C10.62744431 71.04033875 9.76660736 71.06505249 8.87968445 71.09051514 C7.0584932 71.12961298 5.23688035 71.15210615 3.4152832 71.15917969 C0.64519115 71.18729507 -2.10661521 71.32164034 -4.87304688 71.4609375 C-17.31711718 71.77171443 -17.31711718 71.77171443 -21.34765625 68.65286255 C-24.23622213 65.38503391 -26.09132716 61.66555301 -27.86282349 57.70721436 C-29.01067794 55.24397638 -30.48392152 53.05386555 -32.0078125 50.80859375 C-32.94393923 49.33150855 -33.87888127 47.85367171 -34.8125 46.375 C-35.30492187 45.62154297 -35.79734375 44.86808594 -36.3046875 44.09179688 C-36.76359375 43.35896484 -37.2225 42.62613281 -37.6953125 41.87109375 C-38.30850342 40.9128772 -38.30850342 40.9128772 -38.93408203 39.93530273 C-39.96119254 37.21176245 -39.53630203 35.69743618 -38.6875 32.9375 C-37.58349609 30.70849609 -37.58349609 30.70849609 -36.2109375 28.4609375 C-35.70433594 27.62433594 -35.19773437 26.78773438 -34.67578125 25.92578125 C-34.14339844 25.06339844 -33.61101562 24.20101563 -33.0625 23.3125 C-32.55332031 22.47332031 -32.04414063 21.63414062 -31.51953125 20.76953125 C-30.46788491 19.0431444 -29.39303477 17.33070909 -28.29711914 15.63208008 C-26.6083548 12.94985191 -26.6083548 12.94985191 -25.41967773 9.9050293 C-20.27717017 -1.09464642 -10.80868341 -0.15145513 0 0 Z " fill="#FDF2C5" transform="translate(348.6875,271.0625)"/>
<path d="M0 0 C35.53628021 -3.48753556 35.53628021 -3.48753556 44.10498047 1.98193359 C48.63592782 7.04007585 50.94429616 12.95365865 53.04443359 19.34179688 C54.33650976 22.93610584 56.16316744 25.50755237 58.4375 28.5625 C60.12109375 30.87890625 60.12109375 30.87890625 61 33 C59.78200056 36.73881832 57.94007203 39.93738979 55.8828125 43.2734375 C55.27566406 44.2634375 54.66851562 45.2534375 54.04296875 46.2734375 C53.41003906 47.29695313 52.77710938 48.32046875 52.125 49.375 C50.87673401 51.40311052 49.62931712 53.43174394 48.3828125 55.4609375 C47.82996582 56.35603027 47.27711914 57.25112305 46.70751953 58.17333984 C44.74730286 61.41831962 42.87014847 64.70235081 41 68 C35.34501859 68.42318532 29.69935646 68.72979433 24.03222656 68.93383789 C22.11034708 69.01889252 20.1895544 69.13461127 18.27148438 69.2824707 C5.54760641 70.2380842 5.54760641 70.2380842 0 68 C-4.52603351 64.02538711 -6.80920164 58.48690264 -9.10528564 53.03390503 C-10.22245924 50.49429562 -11.64169609 48.28252266 -13.234375 46.015625 C-13.66234375 45.37109375 -14.0903125 44.7265625 -14.53125 44.0625 C-15.38008032 42.80013696 -16.24037458 41.54543882 -17.109375 40.296875 C-18.359375 38.390625 -18.359375 38.390625 -20 35 C-18.80111467 30.78491044 -16.4085297 27.16131161 -14.12109375 23.45703125 C-13.74896255 22.84736008 -13.37683136 22.2376889 -12.99342346 21.60954285 C-11.81169251 19.67497979 -10.62480453 17.74364636 -9.4375 15.8125 C-8.2476864 13.87001095 -7.05894308 11.92687304 -5.87086487 9.98332214 C-5.13312213 8.77725042 -4.39417953 7.57191165 -3.65391541 6.36738586 C-2.36845533 4.27146255 -1.10017903 2.20035807 0 0 Z " fill="#FDF2C5" transform="translate(143,171)"/>
<path d="M0 0 C29.70263315 -3.54198269 29.70263315 -3.54198269 38.24023438 1.9979248 C45.10385395 8.15347442 48.85125466 17.20397609 52.10449219 25.64697266 C53.26215014 28.80203913 53.26215014 28.80203913 55.09619141 31.44824219 C56.37084961 33.78491211 56.37084961 33.78491211 56.26074219 35.74438477 C55.08127889 38.44889897 53.66014492 40.90777283 52.13256836 43.43334961 C51.47708008 44.52131836 50.8215918 45.60928711 50.14624023 46.73022461 C49.80310791 47.29386719 49.45997559 47.85750977 49.10644531 48.43823242 C48.06775595 50.14446055 47.03664746 51.85529608 46.00561523 53.56616211 C44.14184592 56.64876003 42.276114 59.72777638 40.37084961 62.78491211 C39.53263672 64.40429688 39.53263672 64.40429688 38.67749023 66.05639648 C35.88580148 69.35867354 34.40844986 69.68509755 30.25357056 70.17939758 C29.05285416 70.26643196 29.05285416 70.26643196 27.82788086 70.35522461 C26.99050385 70.42351974 26.15312683 70.49181488 25.29037476 70.56217957 C22.58683482 70.73981625 19.89173688 70.83978827 17.18334961 70.90991211 C16.27267731 70.93838226 15.362005 70.96685242 14.42373657 70.9961853 C-1.4251799 71.22336394 -1.4251799 71.22336394 -7.1262207 66.09106445 C-12.84643448 59.78304391 -16.33099933 51.79114371 -19.36279297 43.92285156 C-20.5065242 40.76188201 -20.5065242 40.76188201 -22.41699219 38.18408203 C-23.62915039 35.78491211 -23.62915039 35.78491211 -23.04321289 33.36547852 C-21.40650955 30.37860794 -19.74799493 27.42208674 -18.00415039 24.49584961 C-17.65658691 23.91074615 -17.30902344 23.3256427 -16.95092773 22.72280884 C-15.84700159 20.86650151 -14.7380636 19.01324358 -13.62915039 17.15991211 C-12.88404825 15.9074926 -12.13925353 14.65489015 -11.39477539 13.40209961 C-3.92073996 0.84797706 -3.92073996 0.84797706 0 0 Z " fill="#FDF2C5" transform="translate(239.629150390625,221.215087890625)"/>
</svg>
