<svg version="1.1" xmlns="http://www.w3.org/2000/svg" width="32" height="32">
<path d="M0 0 C4.8846525 2.26787438 7.73212562 5.1153475 10 10 C10.75381535 15.5997712 10.77303575 20.33499991 8.375 25.5 C3.80134327 30.3143755 0.6912538 32.25156236 -6 32.5 C-12.6912538 32.25156236 -15.80134327 30.3143755 -20.375 25.5 C-22.77303575 20.33499991 -22.75381535 15.5997712 -22 10 C-17.52212837 0.3553534 -9.85292056 -1.32635469 0 0 Z " fill="#DF5E01" transform="translate(22,0)"/>
<path d="M0 0 C3 3.75 3 3.75 3 6 C4.65 6.33 6.3 6.66 8 7 C8 8.65 8 10.3 8 12 C7.01 12.33 6.02 12.66 5 13 C4.855625 13.804375 4.71125 14.60875 4.5625 15.4375 C4 18 4 18 3 19 C0 19.125 0 19.125 -3 19 C-4 18 -4 18 -4.09765625 15.93359375 C-4.08025391 14.69802734 -4.08025391 14.69802734 -4.0625 13.4375 C-4.05347656 12.61121094 -4.04445313 11.78492188 -4.03515625 10.93359375 C-4.02355469 10.29550781 -4.01195312 9.65742188 -4 9 C-6.475 8.01 -6.475 8.01 -9 7 C-8.67 6.34 -8.34 5.68 -8 5 C-7.236875 5.103125 -6.47375 5.20625 -5.6875 5.3125 C-4.800625 5.209375 -3.91375 5.10625 -3 5 C-1.1375562 2.59141286 -1.1375562 2.59141286 0 0 Z " fill="#F4DACC" transform="translate(16,7)"/>
</svg>
