<svg width="72" height="72" viewBox="0 0 72 72" fill="none" xmlns="http://www.w3.org/2000/svg">
<g clip-path="url(#clip0_1479_35274)">
<path d="M70.7143 36C70.7143 55.1722 55.1722 70.7143 36 70.7143C16.8278 70.7143 1.28571 55.1722 1.28571 36C1.28571 16.8278 16.8278 1.28571 36 1.28571C55.1722 1.28571 70.7143 16.8278 70.7143 36Z" fill="#4B748F" stroke="#0D1116" stroke-width="2.57143"/>
<path d="M35.9999 66.8571C53.0419 66.8571 66.8571 53.0419 66.8571 35.9999C66.8571 18.958 53.0419 5.14282 35.9999 5.14282C18.958 5.14282 5.14282 18.958 5.14282 35.9999C5.14282 53.0419 18.958 66.8571 35.9999 66.8571Z" fill="url(#paint0_linear_1479_35274)"/>
<path d="M35.9738 18L31.3102 22.4493L35.9738 26.8985L40.6375 22.4493L35.9738 18Z" fill="#B7DFFA"/>
<path d="M20.3965 27.2204L15.4285 22.6896V45.0439H21.306V35.4041C24.7779 38.0217 28.5057 40.3217 32.4408 42.271C33.19 42.6436 33.958 43.0071 34.7446 43.3617C40.5848 45.9976 46.7794 47.8471 53.1515 48.8571L53.8137 45.0439H56.5713V28.1984H50.6937V42.6838C46.0607 41.6992 41.5532 40.2245 37.2552 38.2846L37.254 38.2841C36.5331 37.9591 35.8327 37.6275 35.1527 37.2893L35.1506 37.2882L35.1485 37.2872C29.7566 34.6164 24.7896 31.2269 20.3965 27.2204Z" fill="#B7DFFA"/>
</g>
<defs>
<linearGradient id="paint0_linear_1479_35274" x1="5.14282" y1="35.4571" x2="66.8581" y2="35.6289" gradientUnits="userSpaceOnUse">
<stop stop-color="#111212"/>
<stop offset="0.5" stop-color="#1A1B1C"/>
<stop offset="1" stop-color="#111212"/>
</linearGradient>
<clipPath id="clip0_1479_35274">
<rect width="72" height="72" fill="white"/>
</clipPath>
</defs>
</svg>
