<svg width="18" height="18" viewBox="0 0 18 18" fill="none" xmlns="http://www.w3.org/2000/svg">
<path d="M9.03595 2.63776L12.3603 5.94125C12.0583 5.88919 11.7479 5.86244 11.4313 5.86244C8.39178 5.86244 5.92752 8.34013 5.92752 11.3968C5.92752 11.7546 5.96127 12.1044 6.02563 12.4432L2.78218 9.22115C2.66262 9.11415 2.54849 9.00083 2.44036 8.88146C1.72954 8.09564 1.28675 7.05756 1.26272 5.91191C1.21066 3.39655 3.19637 1.31493 5.69782 1.26258C5.72986 1.26201 5.7619 1.26172 5.79393 1.26172C7.06168 1.26172 8.21215 1.7878 9.03624 2.63776H9.03595Z" fill="url(#paint0_linear_11076_23735)" stroke="black" style="stroke:black;stroke-opacity:1;" stroke-width="0.841552" stroke-miterlimit="10"/>
<path d="M16.5972 13.3085C16.0375 14.8361 14.8272 16.0471 13.304 16.6013C12.9822 16.6816 12.6467 16.7276 12.3014 16.7348C12.2691 16.7354 12.2371 16.7359 12.205 16.7359C10.9708 16.7359 9.84776 16.2369 9.02853 15.4261C9.01537 15.4128 9.00221 15.3999 8.98934 15.3866L6.02536 12.4421C5.961 12.1033 5.92725 11.7535 5.92725 11.3957C5.92725 8.33902 8.39151 5.86133 11.431 5.86133C11.7477 5.86133 12.058 5.88808 12.3601 5.94014L15.1908 8.75292C15.3284 8.87402 15.4582 9.00345 15.5804 9.14008H15.5806C16.2789 9.92331 16.7128 10.9516 16.7363 12.0857C16.7451 12.508 16.6962 12.9182 16.5972 13.3085Z" fill="url(#paint1_linear_11076_23735)" style=""/>
<path d="M16.5972 13.3085C16.0375 14.8361 14.8272 16.0471 13.304 16.6013C12.9822 16.6816 12.6467 16.7276 12.3014 16.7348C12.2691 16.7354 12.2371 16.7359 12.205 16.7359C10.9708 16.7359 9.84776 16.2369 9.02853 15.4261C9.01537 15.4128 9.00221 15.3999 8.98934 15.3866L6.02536 12.4421C5.961 12.1033 5.92725 11.7535 5.92725 11.3957C5.92725 8.33902 8.39151 5.86133 11.431 5.86133C11.7477 5.86133 12.058 5.88808 12.3601 5.94014L15.1908 8.75292C15.3284 8.87402 15.4582 9.00345 15.5804 9.14008H15.5806C16.2789 9.92331 16.7128 10.9516 16.7363 12.0857C16.7451 12.508 16.6962 12.9182 16.5972 13.3085Z" fill="white" fill-opacity="0.3" style="fill:white;fill-opacity:0.3;"/>
<path d="M16.5972 13.3085C16.0375 14.8361 14.8272 16.0471 13.304 16.6013C12.9822 16.6816 12.6467 16.7276 12.3014 16.7348C12.2691 16.7354 12.2371 16.7359 12.205 16.7359C10.9708 16.7359 9.84776 16.2369 9.02853 15.4261C9.01537 15.4128 9.00221 15.3999 8.98934 15.3866L6.02536 12.4421C5.961 12.1033 5.92725 11.7535 5.92725 11.3957C5.92725 8.33902 8.39151 5.86133 11.431 5.86133C11.7477 5.86133 12.058 5.88808 12.3601 5.94014L15.1908 8.75292C15.3284 8.87402 15.4582 9.00345 15.5804 9.14008H15.5806C16.2789 9.92331 16.7128 10.9516 16.7363 12.0857C16.7451 12.508 16.6962 12.9182 16.5972 13.3085Z" stroke="#050505" style="stroke:#050505;stroke:color(display-p3 0.0196 0.0196 0.0196);stroke-opacity:1;" stroke-width="0.841552" stroke-miterlimit="10"/>
<g style="mix-blend-mode:multiply">
<path d="M16.5974 13.2725C16.4295 13.731 16.2029 14.161 15.9266 14.553C15.283 15.4677 14.3702 16.1773 13.3042 16.5653C12.9824 16.6456 12.6468 16.6916 12.3016 16.6988C12.2692 16.6994 12.2372 16.6999 12.2052 16.6999C10.9709 16.6999 9.84789 16.2009 9.02866 15.3901C9.0155 15.3768 9.00234 15.3639 8.98947 15.3506L6.02549 12.4061L2.78204 9.18404C2.66248 9.07704 2.54834 8.96372 2.44022 8.84435C2.18364 8.56074 1.96167 8.24434 1.78232 7.90177C1.46395 7.29514 1.27774 6.60712 1.26258 5.8748C1.24971 5.25926 1.57321 4.58103 1.78231 4.04085C1.55283 4.72171 1.6435 6.31304 3.00487 7.68198C3.10384 7.79099 3.20796 7.89454 3.31723 7.99234L6.28093 10.9366L8.78675 13.4662C10.2095 14.8969 12.2616 16.5722 13.9755 15.7384C16.6018 14.4575 17.2394 11.1049 14.602 8.67123C14.4904 8.54611 14.3717 8.4279 14.2461 8.31716L11.4921 5.57883L8.45457 2.5601C7.70113 1.78348 6.64992 1.30285 5.49145 1.30285C5.46227 1.30285 5.43309 1.30313 5.40363 1.30371C5.01976 1.31176 4.64905 1.37188 4.29836 1.47802C4.73715 1.32384 5.2074 1.23554 5.6974 1.22547C5.72943 1.2249 5.76147 1.22461 5.79351 1.22461C7.06125 1.22461 8.21172 1.75069 9.03581 2.60065L12.3602 5.90414L15.1909 8.71692C15.3285 8.83802 15.4583 8.96745 15.5805 9.10408C16.2787 9.88731 16.7126 10.9156 16.7361 12.0498C16.745 12.472 16.6961 12.8822 16.5971 13.2725H16.5974Z" fill="#C6C6C6" style="fill:#C6C6C6;fill:color(display-p3 0.7765 0.7765 0.7765);fill-opacity:1;"/>
</g>
<g style="mix-blend-mode:overlay" opacity="0.4">
<path d="M5.20441 1.80622C6.43194 1.82013 7.47148 2.24798 8.26044 3.04999L11.4444 6.16916L14.4195 9.09603C14.5514 9.21095 14.6759 9.33287 14.7927 9.4615C15.4605 10.1998 15.917 11.0429 15.9277 12.1016C15.9359 12.882 15.9118 13.5167 14.8859 14.8013C15.4049 13.7198 14.8017 11.9214 14.0359 11.0755C13.0754 10.0154 11.5339 8.40872 10.5101 7.40615C8.94479 5.87282 7.69763 4.52887 5.94077 3.19353C5.06526 2.52807 4.32585 2.23722 3.0737 2.56871C3.0737 2.56871 4.68212 1.7681 5.20441 1.80622Z" fill="white" style="fill:white;fill-opacity:1;"/>
</g>
<g style="mix-blend-mode:overlay" opacity="0.4">
<path d="M12.1345 15.8218C10.8853 15.4629 9.56312 14.2341 8.78695 13.4655L5.7304 10.3894L3.06421 7.846C2.93465 7.73608 2.81221 7.61928 2.69718 7.49591C2.0396 6.7877 1.69608 6.00924 1.67414 4.98329C1.66276 4.46056 1.77322 4.0051 1.97398 3.53516C1.93291 4.50341 1.97676 5.55811 2.67761 6.31228C2.96286 6.60745 3.1707 6.88411 3.46819 7.16775C4.27324 7.94518 5.25225 8.91946 6.06256 9.6924C7.30798 10.8808 8.33206 12.0386 9.57752 13.2269C9.57752 13.2269 11.1303 15.2327 13.4736 15.906C13.3062 15.9901 12.7204 15.9901 12.1345 15.8218Z" fill="white" style="fill:white;fill-opacity:1;"/>
</g>
<defs>
<linearGradient id="paint0_linear_11076_23735" x1="12.3603" y1="6.92702" x2="1.25759" y2="6.94523" gradientUnits="userSpaceOnUse">
<stop stop-color="#8962F8" style="stop-color:#8962F8;stop-color:color(display-p3 0.5373 0.3843 0.9725);stop-opacity:1;"/>
<stop offset="0.349063" stop-color="#A855DD" style="stop-color:#A855DD;stop-color:color(display-p3 0.6607 0.3330 0.8653);stop-opacity:1;"/>
<stop offset="1" stop-color="#DD3BEB" style="stop-color:#DD3BEB;stop-color:color(display-p3 0.8664 0.2314 0.9216);stop-opacity:1;"/>
</linearGradient>
<linearGradient id="paint1_linear_11076_23735" x1="16.7373" y1="11.3711" x2="5.92323" y2="11.3889" gradientUnits="userSpaceOnUse">
<stop stop-color="#8962F8" style="stop-color:#8962F8;stop-color:color(display-p3 0.5373 0.3843 0.9725);stop-opacity:1;"/>
<stop offset="0.349063" stop-color="#A855DD" style="stop-color:#A855DD;stop-color:color(display-p3 0.6607 0.3330 0.8653);stop-opacity:1;"/>
<stop offset="1" stop-color="#DD3BEB" style="stop-color:#DD3BEB;stop-color:color(display-p3 0.8664 0.2314 0.9216);stop-opacity:1;"/>
</linearGradient>
</defs>
</svg>
