<svg version="1.1" xmlns="http://www.w3.org/2000/svg" width="601" height="601">
<path d="M0 0 C2.73906552 2.60189099 5.38134925 5.27798146 8 8 C10.5793963 10.59647839 13.17616541 13.17173667 15.796875 15.7265625 C22.35066491 22.13365869 28.41072177 28.72079204 34 36 C34.74540039 36.95543701 34.74540039 36.95543701 35.50585938 37.93017578 C57.48324046 66.22900788 73.98316155 97.93228047 85 132 C85.4343335 133.33224609 85.4343335 133.33224609 85.87744141 134.69140625 C108.5110101 205.34970429 101.98278485 285.34098822 70 352 C69.62794434 352.79035645 69.25588867 353.58071289 68.87255859 354.39501953 C56.63680888 380.2973328 40.40128041 403.50875563 21.12109375 424.66015625 C19.19213665 426.78804815 17.30963647 428.94720859 15.4375 431.125 C9.45994333 437.97026651 2.92419928 444.12711894 -4 450 C-5.30904297 451.12535156 -5.30904297 451.12535156 -6.64453125 452.2734375 C-69.33094152 505.47716456 -148.97900436 528.93913107 -230.5390625 522.6875 C-286.22064278 517.89646006 -342.48147334 496.30418629 -386 461 C-386.95261719 460.23945312 -387.90523438 459.47890625 -388.88671875 458.6953125 C-394.27295271 454.35327173 -399.48047103 449.85152327 -404.58984375 445.1875 C-406.92581254 443.06733383 -409.30326875 441.0030269 -411.6875 438.9375 C-415.10593478 435.90087993 -418.13284668 432.72292034 -421.078125 429.23046875 C-423.34817319 426.59592096 -425.73769856 424.0912456 -428.125 421.5625 C-464.53957151 382.29759675 -487.83140927 330.51638219 -497.75 278.3125 C-497.94891846 277.26900391 -498.14783691 276.22550781 -498.3527832 275.15039062 C-501.41982822 258.1086201 -502.37931287 241.22812183 -502.3125 223.9375 C-502.30976578 222.46139755 -502.30976578 222.46139755 -502.30697632 220.95547485 C-502.25879026 205.45981194 -501.6898959 190.29650668 -499 175 C-498.82307617 173.99324219 -498.64615234 172.98648438 -498.46386719 171.94921875 C-485.63468425 101.48842124 -448.51792982 33.00928752 -391 -11 C-390.03449219 -11.77085938 -389.06898438 -12.54171875 -388.07421875 -13.3359375 C-347.73246668 -45.18733328 -300.54109046 -65.40691897 -250 -74 C-249.0315918 -74.16661133 -248.06318359 -74.33322266 -247.06542969 -74.50488281 C-158.05097164 -89.05445413 -66.8645496 -59.15962799 0 0 Z " fill="#0E0B31" transform="translate(502,77)"/>
<path d="M0 0 C2.73906552 2.60189099 5.38134925 5.27798146 8 8 C10.5793963 10.59647839 13.17616541 13.17173667 15.796875 15.7265625 C22.35066491 22.13365869 28.41072177 28.72079204 34 36 C34.74540039 36.95543701 34.74540039 36.95543701 35.50585938 37.93017578 C57.48324046 66.22900788 73.98316155 97.93228047 85 132 C85.4343335 133.33224609 85.4343335 133.33224609 85.87744141 134.69140625 C108.5110101 205.34970429 101.98278485 285.34098822 70 352 C69.62794434 352.79035645 69.25588867 353.58071289 68.87255859 354.39501953 C56.63680888 380.2973328 40.40128041 403.50875563 21.12109375 424.66015625 C19.19213665 426.78804815 17.30963647 428.94720859 15.4375 431.125 C9.45994333 437.97026651 2.92419928 444.12711894 -4 450 C-5.30904297 451.12535156 -5.30904297 451.12535156 -6.64453125 452.2734375 C-69.33094152 505.47716456 -148.97900436 528.93913107 -230.5390625 522.6875 C-286.22064278 517.89646006 -342.48147334 496.30418629 -386 461 C-386.95261719 460.23945312 -387.90523438 459.47890625 -388.88671875 458.6953125 C-394.27295271 454.35327173 -399.48047103 449.85152327 -404.58984375 445.1875 C-406.92581254 443.06733383 -409.30326875 441.0030269 -411.6875 438.9375 C-415.10593478 435.90087993 -418.13284668 432.72292034 -421.078125 429.23046875 C-423.34817319 426.59592096 -425.73769856 424.0912456 -428.125 421.5625 C-464.53957151 382.29759675 -487.83140927 330.51638219 -497.75 278.3125 C-497.94891846 277.26900391 -498.14783691 276.22550781 -498.3527832 275.15039062 C-501.41982822 258.1086201 -502.37931287 241.22812183 -502.3125 223.9375 C-502.30976578 222.46139755 -502.30976578 222.46139755 -502.30697632 220.95547485 C-502.25879026 205.45981194 -501.6898959 190.29650668 -499 175 C-498.82307617 173.99324219 -498.64615234 172.98648438 -498.46386719 171.94921875 C-485.63468425 101.48842124 -448.51792982 33.00928752 -391 -11 C-390.03449219 -11.77085938 -389.06898438 -12.54171875 -388.07421875 -13.3359375 C-347.73246668 -45.18733328 -300.54109046 -65.40691897 -250 -74 C-249.0315918 -74.16661133 -248.06318359 -74.33322266 -247.06542969 -74.50488281 C-158.05097164 -89.05445413 -66.8645496 -59.15962799 0 0 Z M-252.75 -44.3125 C-253.64501221 -44.14661377 -254.54002441 -43.98072754 -255.4621582 -43.80981445 C-266.52340644 -41.64692573 -277.28325191 -38.46100717 -288 -35 C-288.82564453 -34.73348633 -289.65128906 -34.46697266 -290.50195312 -34.19238281 C-318.60984488 -24.91235393 -344.85822542 -10.36857783 -368 8 C-369.49080078 9.17175781 -369.49080078 9.17175781 -371.01171875 10.3671875 C-386.69700552 22.94226762 -401.67795766 37.0896706 -414 53 C-414.78632813 53.98097656 -415.57265625 54.96195312 -416.3828125 55.97265625 C-427.50564033 69.95300615 -436.72045872 85.19328038 -445 101 C-445.34627441 101.65838867 -445.69254883 102.31677734 -446.04931641 102.99511719 C-460.46541452 130.84327941 -468.04702039 161.07994245 -472 192 C-472.10530029 192.81388184 -472.21060059 193.62776367 -472.3190918 194.46630859 C-473.41208471 204.42644059 -473.28748386 214.49231464 -473.3125 224.5 C-473.31511841 225.50011108 -473.31773682 226.50022217 -473.32043457 227.53063965 C-473.32496294 243.69627215 -472.33639521 259.13599784 -469 275 C-468.83983398 275.80099121 -468.67966797 276.60198242 -468.51464844 277.42724609 C-467.5204085 282.33828475 -466.32160627 287.16784133 -465 292 C-464.80744629 292.7307373 -464.61489258 293.46147461 -464.41650391 294.21435547 C-455.11088371 329.17131253 -438.5706086 363.47117347 -415.36669922 391.35693359 C-414.01345609 392.98382289 -412.6806056 394.62600127 -411.34765625 396.26953125 C-399.43960019 410.73643076 -386.00717058 424.73927 -371 436 C-369.80508022 436.93373327 -368.61114559 437.86872803 -367.41796875 438.8046875 C-345.30000279 455.97961272 -320.30329748 469.4515427 -294 479 C-293.24944336 479.27537598 -292.49888672 479.55075195 -291.72558594 479.83447266 C-279.71336205 484.19133305 -267.51176429 487.43232727 -255 490 C-253.60998779 490.29849854 -253.60998779 490.29849854 -252.19189453 490.60302734 C-236.21340002 493.91593986 -220.44444617 494.37163364 -204.1875 494.375 C-203.20324036 494.37690338 -202.21898071 494.37880676 -201.20489502 494.38076782 C-182.94280984 494.37677208 -164.49999348 493.71659413 -146.625 489.6875 C-145.62952148 489.4716626 -144.63404297 489.2558252 -143.60839844 489.03344727 C-135.23028153 487.16495124 -127.121051 484.75949053 -119 482 C-118.06542969 481.71898437 -117.13085938 481.43796875 -116.16796875 481.1484375 C-80.00665788 470.07759268 -46.09290967 449.20799574 -18.6171875 423.4296875 C-16.51938621 421.48217645 -14.39690227 419.62911965 -12.1875 417.8125 C-9.13310732 415.22688701 -6.58000475 412.35473835 -3.99609375 409.3046875 C-1.67736863 406.6274902 0.755694 404.07485341 3.1875 401.5 C25.22721497 377.6809877 41.3220408 348.0942351 53 318 C53.27005859 317.31873047 53.54011719 316.63746094 53.81835938 315.93554688 C71.50499559 270.91104827 73.89448687 218.23506052 65 171 C64.81808105 170.0114502 64.63616211 169.02290039 64.44873047 168.00439453 C60.43322128 146.87183546 53.46547395 126.30562292 44 107 C43.56171875 106.1042627 43.1234375 105.20852539 42.671875 104.28564453 C33.56546483 85.8695561 22.88756557 68.98632736 10 53 C9.23171875 52.02675781 8.4634375 51.05351562 7.671875 50.05078125 C1.69347518 42.70938148 -4.82898068 35.96504277 -11.5 29.25 C-12.3660083 28.37472656 -13.2320166 27.49945313 -14.12426758 26.59765625 C-20.10671571 20.64391847 -26.36562831 15.21421885 -33 10 C-33.75684082 9.40413086 -34.51368164 8.80826172 -35.29345703 8.19433594 C-74.959437 -22.58238244 -121.30580714 -40.82002491 -171 -47 C-171.74910645 -47.1038501 -172.49821289 -47.2077002 -173.27001953 -47.31469727 C-181.52949494 -48.33023608 -189.86470567 -48.18605501 -198.17285156 -48.18530273 C-200.83415279 -48.18746678 -203.495023 -48.20560766 -206.15625 -48.22460938 C-221.79070524 -48.27645039 -237.36065546 -47.18473746 -252.75 -44.3125 Z " fill="#0F0B31" transform="translate(502,77)"/>
<path d="M0 0 C9.57 0 19.14 0 29 0 C29 15.51 29 31.02 29 47 C36.26 47 43.52 47 51 47 C51 31.49 51 15.98 51 0 C60.9 0 70.8 0 81 0 C81 15.84 81 31.68 81 48 C83.64 48 86.28 48 89 48 C105.44791951 49.79637082 121.9781388 54.58251104 135 65 C135.9075 65.61875 136.815 66.2375 137.75 66.875 C146.33983817 74.98762494 150.7804243 86.10039714 151.23828125 97.72265625 C151.56381804 113.26994462 150.12979139 126.15511493 139 138 C135.48252502 140.91964326 131.84621211 143.53248524 128 146 C129.14275391 146.34611328 129.14275391 146.34611328 130.30859375 146.69921875 C143.29568946 150.80126022 156.15962084 157.25485534 162.97265625 169.765625 C163.31167969 170.50296875 163.65070313 171.2403125 164 172 C164.39058594 172.84046875 164.78117188 173.6809375 165.18359375 174.546875 C171.66437905 191.50007115 169.20731933 212.24762677 162.52734375 228.734375 C155.42737137 244.37781295 143.44931141 252.488927 128.25 259.25 C112.94205936 264.94303577 97.19694197 266 81 266 C81 282.17 81 298.34 81 315 C71.1 315 61.2 315 51 315 C51 299.16 51 283.32 51 267 C43.41 267 35.82 267 28 267 C28 282.84 28 298.68 28 315 C18.43 315 8.86 315 -1 315 C-1 299.16 -1 283.32 -1 267 C-20.14 267 -39.28 267 -59 267 C-56.69932432 247.44425676 -56.69932432 247.44425676 -55.375 239.9375 C-55.2409375 239.15568359 -55.106875 238.37386719 -54.96875 237.56835938 C-54.64978984 235.7115556 -54.32555421 233.855659 -54 232 C-52.90328979 231.97812622 -52.90328979 231.97812622 -51.78442383 231.95581055 C-48.45992629 231.8811709 -45.13641533 231.78456199 -41.8125 231.6875 C-40.08676758 231.65366211 -40.08676758 231.65366211 -38.32617188 231.61914062 C-37.21435547 231.58369141 -36.10253906 231.54824219 -34.95703125 231.51171875 C-33.42526245 231.47244263 -33.42526245 231.47244263 -31.86254883 231.43237305 C-28.59199482 230.93837295 -26.6615884 229.93588946 -24 228 C-22.69738617 225.39477234 -22.86223402 223.47950533 -22.84609985 220.56085205 C-22.83749939 219.40562042 -22.82889893 218.25038879 -22.82003784 217.06015015 C-22.81577789 215.78636505 -22.81151794 214.51257996 -22.80712891 213.20019531 C-22.79922836 211.85004464 -22.79095944 210.49989608 -22.78234863 209.14974976 C-22.75612056 204.70922871 -22.74081915 200.2686982 -22.7265625 195.828125 C-22.72120294 194.29966984 -22.71582543 192.77121474 -22.71043015 191.2427597 C-22.6887993 184.88441917 -22.67006294 178.52608119 -22.65880775 172.16771317 C-22.64257128 163.05506747 -22.60940368 153.94284838 -22.55240691 144.83036351 C-22.51369975 138.42348831 -22.49417411 132.01672717 -22.48888719 125.60973811 C-22.48523442 121.78306063 -22.47322222 117.95683806 -22.44078445 114.13028717 C-22.41068994 110.52846734 -22.40439626 106.92737729 -22.41616821 103.32545853 C-22.41649385 101.37755754 -22.39203655 99.42970152 -22.36679077 97.48196411 C-22.27183778 90.37359688 -22.27183778 90.37359688 -25.41653442 84.25198364 C-29.80963325 80.42255902 -32.46314519 79.75104306 -38.296875 79.5859375 C-39.38323242 79.55032715 -40.46958984 79.5147168 -41.58886719 79.47802734 C-43.64862793 79.42702881 -43.64862793 79.42702881 -45.75 79.375 C-50.1225 79.25125 -54.495 79.1275 -59 79 C-59 68.77 -59 58.54 -59 48 C-39.53 48 -20.06 48 0 48 C0 32.16 0 16.32 0 0 Z " fill="#6C71EC" transform="translate(253,148)"/>
<path d="M0 0 C0.83205963 0.00087616 1.66411926 0.00175232 2.52139282 0.00265503 C62.36951437 0.20775288 121.45817825 19.21924478 169.375 55.375 C169.99165527 55.83616211 170.60831055 56.29732422 171.24365234 56.77246094 C190.01257128 70.88044001 208.16583373 87.67872859 222.375 106.375 C223.28979543 107.53820825 224.20520206 108.70093599 225.12109375 109.86328125 C256.85816184 150.62399241 276.06906596 199.24176379 282.375 250.375 C282.47288818 251.16688721 282.57077637 251.95877441 282.67163086 252.7746582 C283.63098035 261.72544882 283.5733727 270.69643639 283.5625 279.6875 C283.56209213 280.95114883 283.56209213 280.95114883 283.56167603 282.24032593 C283.53456725 300.51055472 282.42319282 318.3774331 278.79150391 336.31396484 C278.51231572 337.69550452 278.24123502 339.07870579 277.97802734 340.46337891 C268.38689303 390.78494093 242.70242866 436.8451762 208.375 474.375 C207.46411758 475.38997377 206.553991 476.40562626 205.64453125 477.421875 C200.5122267 483.13184154 195.27140981 488.44772329 189.375 493.375 C188.37036472 494.2620278 187.36795179 495.15157591 186.3671875 496.04296875 C171.62158827 509.09087678 155.43030981 519.59867148 138.375 529.375 C137.66939941 529.78347168 136.96379883 530.19194336 136.23681641 530.61279297 C96.35152963 553.49622067 49.30571257 564.8889077 3.5 564.6875 C2.6103656 564.68534485 1.7207312 564.6831897 0.80413818 564.68096924 C-63.69460951 564.43189485 -125.31951296 542.91682568 -175.625 502.375 C-176.58664063 501.61832031 -177.54828125 500.86164063 -178.5390625 500.08203125 C-186.07821192 493.95525478 -192.99066921 487.21975657 -199.875 480.375 C-200.79788818 479.46137695 -201.72077637 478.54775391 -202.67163086 477.60644531 C-218.25901356 461.94768285 -231.97046962 443.75207446 -242.625 424.375 C-243.08084473 423.55080566 -243.53668945 422.72661133 -244.00634766 421.87744141 C-260.16742356 392.41476168 -271.81537784 361.58657988 -277.25 328.375 C-277.4665625 327.09882813 -277.683125 325.82265625 -277.90625 324.5078125 C-280.16112196 310.89506698 -280.86463926 297.52381394 -280.875 283.75 C-280.87567474 282.93752808 -280.87634949 282.12505615 -280.87704468 281.28796387 C-280.8326934 247.44006505 -275.80586552 211.09922736 -261.78515625 179.9921875 C-260.52141996 177.14133459 -259.48807261 174.24824644 -258.4375 171.3125 C-249.90525971 149.05448184 -236.38781039 127.97402456 -221.625 109.375 C-220.84382813 108.38113281 -220.06265625 107.38726562 -219.2578125 106.36328125 C-206.66011147 90.64977872 -192.50652653 75.7809341 -176.625 63.375 C-175.81804687 62.71242187 -175.01109375 62.04984375 -174.1796875 61.3671875 C-163.66290714 52.74410393 -152.35394408 45.24189459 -140.625 38.375 C-139.56829102 37.75238281 -139.56829102 37.75238281 -138.49023438 37.1171875 C-112.03484641 21.6641684 -83.56920269 11.51033859 -53.625 5.375 C-52.89442383 5.22047363 -52.16384766 5.06594727 -51.41113281 4.90673828 C-34.42099439 1.32583903 -17.34083382 -0.0454299 0 0 Z M-49.375 15.0625 C-50.27001221 15.22838623 -51.16502441 15.39427246 -52.0871582 15.56518555 C-63.14840644 17.72807427 -73.90825191 20.91399283 -84.625 24.375 C-85.45064453 24.64151367 -86.27628906 24.90802734 -87.12695312 25.18261719 C-115.23484488 34.46264607 -141.48322542 49.00642217 -164.625 67.375 C-166.11580078 68.54675781 -166.11580078 68.54675781 -167.63671875 69.7421875 C-183.32200552 82.31726762 -198.30295766 96.4646706 -210.625 112.375 C-211.41132813 113.35597656 -212.19765625 114.33695312 -213.0078125 115.34765625 C-224.13064033 129.32800615 -233.34545872 144.56828038 -241.625 160.375 C-241.97127441 161.03338867 -242.31754883 161.69177734 -242.67431641 162.37011719 C-257.09041452 190.21827941 -264.67202039 220.45494245 -268.625 251.375 C-268.73030029 252.18888184 -268.83560059 253.00276367 -268.9440918 253.84130859 C-270.03708471 263.80144059 -269.91248386 273.86731464 -269.9375 283.875 C-269.94011841 284.87511108 -269.94273682 285.87522217 -269.94543457 286.90563965 C-269.94996294 303.07127215 -268.96139521 318.51099784 -265.625 334.375 C-265.46483398 335.17599121 -265.30466797 335.97698242 -265.13964844 336.80224609 C-264.1454085 341.71328475 -262.94660627 346.54284133 -261.625 351.375 C-261.43244629 352.1057373 -261.23989258 352.83647461 -261.04150391 353.58935547 C-251.73588371 388.54631253 -235.1956086 422.84617347 -211.99169922 450.73193359 C-210.63845609 452.35882289 -209.3056056 454.00100127 -207.97265625 455.64453125 C-196.06460019 470.11143076 -182.63217058 484.11427 -167.625 495.375 C-166.43008022 496.30873327 -165.23614559 497.24372803 -164.04296875 498.1796875 C-141.92500279 515.35461272 -116.92829748 528.8265427 -90.625 538.375 C-89.87444336 538.65037598 -89.12388672 538.92575195 -88.35058594 539.20947266 C-76.33836205 543.56633305 -64.13676429 546.80732727 -51.625 549.375 C-50.23498779 549.67349854 -50.23498779 549.67349854 -48.81689453 549.97802734 C-32.83840002 553.29093986 -17.06944617 553.74663364 -0.8125 553.75 C0.17175964 553.75190338 1.15601929 553.75380676 2.17010498 553.75576782 C20.43219016 553.75177208 38.87500652 553.09159413 56.75 549.0625 C57.74547852 548.8466626 58.74095703 548.6308252 59.76660156 548.40844727 C68.14471847 546.53995124 76.253949 544.13449053 84.375 541.375 C85.30957031 541.09398437 86.24414062 540.81296875 87.20703125 540.5234375 C123.36834212 529.45259268 157.28209033 508.58299574 184.7578125 482.8046875 C186.85561379 480.85717645 188.97809773 479.00411965 191.1875 477.1875 C194.24189268 474.60188701 196.79499525 471.72973835 199.37890625 468.6796875 C201.69763137 466.0024902 204.130694 463.44985341 206.5625 460.875 C228.60221497 437.0559877 244.6970408 407.4692351 256.375 377.375 C256.64505859 376.69373047 256.91511719 376.01246094 257.19335938 375.31054688 C274.87999559 330.28604827 277.26948687 277.61006052 268.375 230.375 C268.19308105 229.3864502 268.01116211 228.39790039 267.82373047 227.37939453 C263.80822128 206.24683546 256.84047395 185.68062292 247.375 166.375 C246.93671875 165.4792627 246.4984375 164.58352539 246.046875 163.66064453 C236.94046483 145.2445561 226.26256557 128.36132736 213.375 112.375 C212.60671875 111.40175781 211.8384375 110.42851562 211.046875 109.42578125 C205.06847518 102.08438148 198.54601932 95.34004277 191.875 88.625 C191.0089917 87.74972656 190.1429834 86.87445313 189.25073242 85.97265625 C183.26828429 80.01891847 177.00937169 74.58921885 170.375 69.375 C169.61815918 68.77913086 168.86131836 68.18326172 168.08154297 67.56933594 C128.415563 36.79261756 82.06919286 18.55497509 32.375 12.375 C31.62589355 12.2711499 30.87678711 12.1672998 30.10498047 12.06030273 C21.84550506 11.04476392 13.51029433 11.18894499 5.20214844 11.18969727 C2.54084721 11.18753322 -0.120023 11.16939234 -2.78125 11.15039062 C-18.41570524 11.09854961 -33.98565546 12.19026254 -49.375 15.0625 Z " fill="#E98E41" transform="translate(298.625,17.625)"/>
<path d="M0 0 C59.65996993 -0.66535282 59.65996993 -0.66535282 75 14 C80.71393457 20.69958828 81.53733658 26.52877958 81.33203125 35.12890625 C80.68094509 42.71980492 77.74242951 47.87379911 72 52.8125 C55.74446243 64.29974655 35.8741272 64.16212419 16.875 64.0625 C8.521875 64.0315625 8.521875 64.0315625 0 64 C0 42.88 0 21.76 0 0 Z " fill="#0E0B32" transform="translate(282,316)"/>
<path d="M0 0 C48.15216395 -0.77979213 48.15216395 -0.77979213 61.86328125 11.6953125 C67.21588944 17.39283817 68.5071165 23.7065858 68.30859375 31.37890625 C67.57308928 37.62603917 65.4504276 43.09406136 60.75 47.375 C59.52719445 48.28761798 58.27683162 49.16464018 57 50 C56.44957031 50.36609375 55.89914062 50.7321875 55.33203125 51.109375 C43.24947244 58.04417696 29.01480588 58.56205007 15.5 58.25 C10.385 58.1675 5.27 58.085 0 58 C0 38.86 0 19.72 0 0 Z " fill="#0E0B32" transform="translate(282,229)"/>
</svg>
