<?xml version="1.0" encoding="UTF-8"?>
<svg version="1.1" xmlns="http://www.w3.org/2000/svg" width="64" height="64">
<path d="M0 0 C6.47496935 5.28699977 10.89385341 12.01682002 12.48828125 20.3046875 C13.45098895 30.92603642 11.69688696 39.81059549 4.86328125 48.1796875 C-1.65304959 54.98888714 -9.73881 58.38100539 -19.07421875 58.6171875 C-28.91069917 58.48555577 -36.45265729 55.40153127 -43.56640625 48.59375 C-49.91613191 41.12198447 -51.90948271 33.11373067 -51.78125 23.53125 C-50.98490145 13.99815002 -46.7695639 6.47261734 -39.51171875 0.3046875 C-27.03890251 -7.52359656 -12.53369022 -8.45975359 0 0 Z " fill="#000000" transform="translate(51.51171875,5.6953125)"/>
<path d="M0 0 C3.01848877 0.43121268 4.91621258 0.94553818 7.5 2.625 C9.89060966 4.22479714 9.89060966 4.22479714 12.5 3.875 C15.11030805 3.06237918 15.11030805 3.06237918 17.625 1.375 C18.40875 0.92125 19.1925 0.4675 20 0 C20.99 0.33 21.98 0.66 23 1 C24.27184005 6.66546932 23.91727779 9.94338516 21 15 C17.43241534 18.25279778 13.87379642 18.51839537 9.21875 18.35546875 C4.99803799 17.67926313 2.16610931 15.53714409 -0.375 12.1875 C-1.57704859 7.98032993 -1.37268848 4.11806543 0 0 Z " fill="#C0F660" transform="translate(21,31)"/>
<path d="M0 0 C2.37432758 1.17517224 4.6264845 2.46271877 6.88671875 3.84375 C8.94104509 4.96774371 10.71396217 5.54588865 13 6 C12 9 12 9 10.2109375 10.1640625 C6.47101414 11.57809713 2.93382056 11.55905249 -1 11 C-4.30790397 9.31597616 -6.31788658 8.02317013 -8.375 4.9375 C-9 3 -9 3 -9 0 C-5.92768987 -1.53615506 -3.18978289 -0.90276874 0 0 Z " fill="#C3F961" transform="translate(29,38)"/>
<path d="M0 0 C4.27773575 3.64399712 6.40506429 8.09845477 9 13 C6.03 14.65 3.06 16.3 0 18 C-2.64 16.35 -5.28 14.7 -8 13 C-7.23302204 11.58124235 -6.46123222 10.16508548 -5.6875 8.75 C-5.04361328 7.56664062 -5.04361328 7.56664062 -4.38671875 6.359375 C-3.0603786 4.10272866 -1.61115776 2.06001403 0 0 Z " fill="#799A3C" transform="translate(32,15)"/>
<path d="M0 0 C2.74277578 3.19990508 4.6302836 6.00499382 6 10 C3.51229865 11.56633048 2.34447796 12.04100928 -0.625 11.6875 C-3 11 -3 11 -5 10 C-3.84414715 6.08788267 -2.64465038 3.1254959 0 0 Z " fill="#000000" transform="translate(32,18)"/>
<path d="M0 0 C8.83889606 -0.13688556 14.73672959 3.22021896 22 8 C20.3671875 8.68359375 20.3671875 8.68359375 18 9 C14.88873702 7.6523638 12.02563745 6.00671975 9.0703125 4.34765625 C5.77101283 2.89949037 3.56034374 2.73961665 0 3 C0 2.01 0 1.02 0 0 Z " fill="#95BE4A" transform="translate(20,35)"/>
<path d="M0 0 C0.99 0.99 1.98 1.98 3 3 C2.67 3.99 2.34 4.98 2 6 C1.01 6 0.02 6 -1 6 C-3.21168225 8.94236782 -3.21168225 8.94236782 -5 12 C-5.33 11.01 -5.66 10.02 -6 9 C-4.78515625 6.73828125 -4.78515625 6.73828125 -3.0625 4.3125 C-2.49660156 3.50425781 -1.93070313 2.69601563 -1.34765625 1.86328125 C-0.90292969 1.24839844 -0.45820313 0.63351562 0 0 Z " fill="#A7D653" transform="translate(32,15)"/>
<path d="M0 0 C4.75 0.875 4.75 0.875 7 2 C7 2.99 7 3.98 7 5 C4.36 4.67 1.72 4.34 -1 4 C-0.67 2.68 -0.34 1.36 0 0 Z " fill="#ADDD56" transform="translate(21,31)"/>
<path d="M0 0 C2.40072955 2.88087546 4.47291037 5.56404834 6 9 C4.02 9.99 2.04 10.98 0 12 C0.33 11.01 0.66 10.02 1 9 C1.66 9 2.32 9 3 9 C2.505 8.2575 2.01 7.515 1.5 6.75 C0 4 0 4 0 0 Z " fill="#8DB446" transform="translate(35,19)"/>
</svg>
