<svg width="122" height="122" viewBox="0 0 122 122" fill="none" xmlns="http://www.w3.org/2000/svg">
<g clip-path="url(#clip0_9498_2302)">
<path d="M120.174 75.7565C112.026 108.435 78.9243 128.323 46.2381 120.173C13.5653 112.027 -6.32473 78.9264 1.82726 46.2501C9.97163 13.5678 43.0734 -6.32183 75.7502 1.8254C108.434 9.9726 128.323 43.0763 120.174 75.7565Z" fill="url(#paint0_linear_9498_2302)"/>
<path fill-rule="evenodd" clip-rule="evenodd" d="M71.2752 28.0307C71.8207 25.9966 73.9114 24.7894 75.9452 25.3345C77.9796 25.8795 79.1865 27.9704 78.6416 30.0045L77.0265 36.0323L78.0282 36.3006C85.24 38.2331 89.5197 45.646 87.5878 52.858L87.4977 53.1928C85.9914 58.8159 81.065 62.6097 75.5556 62.9363L75.5549 62.941L75.4669 62.9415L75.4606 62.9415L75.4336 62.9429C75.0322 62.9759 74.9574 63.5531 75.3573 63.6776L75.3566 63.6798C82.2975 66.4283 86.2278 74.0049 84.2488 81.3908C82.1179 89.3423 73.9446 94.0608 65.9932 91.9306L63.6524 91.3033L62.0377 97.3291C61.4927 99.3636 59.4018 100.57 57.3677 100.026C55.3335 99.4808 54.1264 97.3894 54.6715 95.3556L56.2862 89.3291L49.5889 87.5351L47.9744 93.561C47.4293 95.5948 45.3385 96.8016 43.3043 96.2568C41.2702 95.7119 40.0631 93.6213 40.6081 91.5868L42.2227 85.561L35.5237 83.7663L35.5238 83.7656L31.8419 82.7792C29.6229 82.1845 28.306 79.9039 28.9006 77.685C29.4952 75.4655 31.7761 74.1491 33.9952 74.7432L37.677 75.7303L48.0844 36.8892L44.7397 35.993C42.5206 35.3985 41.2037 33.1175 41.7983 30.8985C42.3929 28.6794 44.6738 27.3625 46.8929 27.9571L50.2412 28.8543L50.2409 28.8551L55.597 30.2903L57.2121 24.2626C57.7571 22.2285 59.8479 21.0214 61.8821 21.5664C63.9162 22.1115 65.1233 24.2023 64.5784 26.2364L62.9632 32.264L69.6601 34.0585L71.2752 28.0307ZM53.1909 53.7696C52.4903 51.1549 54.042 48.4672 56.6567 47.7666L70.372 44.0916C72.9866 43.391 75.6741 44.9427 76.3749 47.5574C77.0757 50.1722 75.5237 52.8598 72.909 53.5604L59.1939 57.2353C56.5791 57.936 53.8915 56.3843 53.1909 53.7696ZM46.919 75.9479C46.2184 73.3332 47.7701 70.6458 50.3848 69.945L64.1001 66.27C66.7147 65.5693 69.4022 67.1211 70.103 69.7356C70.8038 72.3503 69.2519 75.0378 66.6372 75.7386L52.9219 79.4138C50.3072 80.1146 47.6196 78.5626 46.919 75.9479Z" fill="white"/>
</g>
<defs>
<linearGradient id="paint0_linear_9498_2302" x1="61" y1="2.13239e-07" x2="61" y2="122" gradientUnits="userSpaceOnUse">
<stop stop-color="#FEDF70"/>
<stop offset="1" stop-color="#D88528"/>
</linearGradient>
<clipPath id="clip0_9498_2302">
<rect width="122" height="122" fill="white"/>
</clipPath>
</defs>
</svg>
