<svg version="1.1" xmlns="http://www.w3.org/2000/svg" width="32" height="32">
<path d="M0 0 C4.49361646 2.16656508 7.21078412 4.89752831 10 9 C10.98157258 14.76673891 10.80871837 20.22704049 8.375 25.5625 C3.75852915 30.30045692 0.67721152 32.25208373 -6 32.5 C-12.46907717 32.26781777 -15.6912302 30.43609166 -20.125 25.7578125 C-23.41749364 20.91510311 -22.69564379 15.63613434 -22 10 C-17.59795274 0.34935792 -9.81116445 -1.33421055 0 0 Z " fill="#000100" transform="translate(22,0)"/>
<path d="M0 0 C6.6 0 13.2 0 20 0 C20 0.99 20 1.98 20 3 C14.39 3 8.78 3 3 3 C3 3.99 3 4.98 3 6 C8.61 6 14.22 6 20 6 C20 10.62 20 15.24 20 20 C13.4 20 6.8 20 0 20 C0 19.01 0 18.02 0 17 C5.61 17 11.22 17 17 17 C17 16.01 17 15.02 17 14 C11.39 14 5.78 14 0 14 C0 9.38 0 4.76 0 0 Z " fill="#91C930" transform="translate(6,6)"/>
<path d="M0 0 C0.33 0.99 0.66 1.98 1 3 C6.61 3 12.22 3 18 3 C18 7.62 18 12.24 18 17 C11.4 17 4.8 17 -2 17 C-1.505 15.515 -1.505 15.515 -1 14 C-1 14.66 -1 15.32 -1 16 C4.94 16 10.88 16 17 16 C16.67 13.69 16.34 11.38 16 9 C10.72 9 5.44 9 0 9 C0 6.03 0 3.06 0 0 Z " fill="#88C02C" transform="translate(8,9)"/>
<path d="M0 0 C0.33 0 0.66 0 1 0 C1 3.96 1 7.92 1 12 C-4.94 12 -10.88 12 -17 12 C-17 11.34 -17 10.68 -17 10 C-11.72 10 -6.44 10 -1 10 C-1 8.68 -1 7.36 -1 6 C-5.95 6 -10.9 6 -16 6 C-16 5.67 -16 5.34 -16 5 C-10.72 5 -5.44 5 0 5 C0 3.35 0 1.7 0 0 Z " fill="#B0F23C" transform="translate(24,13)"/>
<path d="M0 0 C4.62 0 9.24 0 14 0 C14 1.32 14 2.64 14 4 C9.38 4 4.76 4 0 4 C0 2.68 0 1.36 0 0 Z " fill="#1B2708" transform="translate(9,14)"/>
</svg>
