<?xml version="1.0" encoding="UTF-8"?>
<svg version="1.1" xmlns="http://www.w3.org/2000/svg" width="617" height="617">
<path d="M0 0 C203.61 0 407.22 0 617 0 C617 203.61 617 407.22 617 617 C413.39 617 209.78 617 0 617 C0 413.39 0 209.78 0 0 Z " fill="#C0FD5C" transform="translate(0,0)"/>
<path d="M0 0 C76.56 0 153.12 0 232 0 C232 8.58 232 17.16 232 26 C164.02 26 96.04 26 26 26 C26 40.52 26 55.04 26 70 C94.64 70 163.28 70 234 70 C234 125.44 234 180.88 234 238 C157.44 238 80.88 238 2 238 C2 229.42 2 220.84 2 212 C69.98 212 137.96 212 208 212 C208 197.48 208 182.96 208 168 C139.36 168 70.72 168 0 168 C0 112.56 0 57.12 0 0 Z " fill="#000000" transform="translate(192,190)"/>
<path d="M0 0 C60.06 0 120.12 0 182 0 C182 15.18 182 30.36 182 46 C121.94 46 61.88 46 0 46 C0 30.82 0 15.64 0 0 Z " fill="#C0FD5C" transform="translate(218,286)"/>
</svg>
