<svg version="1.0" xmlns="http://www.w3.org/2000/svg"
 width="3402.000000pt" height="3402.000000pt" viewBox="0 0 3402.000000 3402.000000"
 preserveAspectRatio="xMidYMid meet">
<g transform="translate(0.000000,3402.000000) scale(0.100000,-0.100000)"
fill="#7D2DF8" stroke="none">
<path d="M16528 29150 c-1018 -45 -1963 -197 -2896 -466 -2402 -691 -4524
-2110 -6113 -4089 -345 -430 -716 -957 -914 -1300 -374 -646 -551 -992 -775
-1515 -1152 -2691 -1281 -5794 -357 -8590 804 -2431 2370 -4552 4482 -6070
1767 -1270 3888 -2044 6070 -2215 600 -47 1333 -48 1905 -5 2675 205 5147
1254 7146 3032 1175 1046 2144 2314 2829 3703 102 209 264 558 329 713 57 134
248 661 316 867 338 1034 532 2084 590 3195 21 401 11 1108 -20 1520 -200
2607 -1201 5024 -2896 6995 -353 410 -818 879 -1219 1230 -1976 1729 -4409
2756 -7020 2965 -409 32 -1089 47 -1457 30z m1032 -1010 c505 -27 1261 -114
1341 -155 64 -33 105 -115 96 -192 -7 -60 -24 -81 -163 -197 -157 -132 -502
-478 -638 -641 -295 -354 -585 -782 -832 -1225 -111 -201 -218 -289 -394 -326
-102 -22 -154 -15 -414 55 -2088 562 -4077 709 -5767 426 -81 -14 -163 -25
-183 -25 -69 0 -116 53 -116 131 0 37 6 48 43 83 50 47 359 258 592 403 1232
768 2596 1284 4020 1522 448 75 835 115 1375 144 146 8 868 6 1040 -3z m3511
-809 c565 -114 1104 -514 1614 -1197 839 -1122 1517 -2980 1854 -5079 84 -519
191 -1346 180 -1390 -1 -6 1 -17 4 -25 13 -31 60 -650 82 -1070 54 -1038 38
-2149 -45 -3225 l-20 -250 -36 -32 c-20 -18 -116 -95 -213 -171 -2216 -1742
-5168 -3419 -8056 -4577 -2025 -812 -3931 -1310 -5380 -1405 -204 -13 -632
-13 -806 0 -642 49 -1086 219 -1269 485 -141 205 -132 552 26 952 224 568 696
1228 1418 1982 188 196 217 239 237 345 17 94 -8 202 -67 287 -31 46 -246 221
-319 261 -70 38 -168 54 -242 39 -136 -27 -189 -71 -546 -461 -581 -633 -996
-1208 -1270 -1759 -89 -179 -128 -228 -202 -257 -68 -26 -169 -17 -231 21 -57
35 -137 150 -339 485 -832 1387 -1339 2900 -1514 4520 -48 441 -56 610 -56
1190 0 643 18 957 86 1470 48 367 139 868 165 908 24 37 80 56 124 43 20 -6
44 -19 53 -28 9 -10 41 -97 73 -193 396 -1219 1172 -2510 2233 -3715 419 -475
999 -1051 1501 -1491 907 -793 2014 -1580 3120 -2216 455 -262 1069 -587 1570
-831 487 -238 618 -293 751 -318 92 -17 270 -14 364 5 71 15 581 211 767 295
132 59 226 165 269 300 31 99 28 188 -14 361 -239 985 -419 2249 -492 3440
-35 578 -40 761 -40 1525 0 768 6 987 40 1555 113 1838 426 3569 916 5067 74
226 81 276 54 352 -40 114 -84 143 -365 236 -282 93 -310 99 -387 79 -106 -27
-162 -82 -203 -199 -113 -320 -281 -890 -389 -1320 -344 -1370 -549 -2762
-641 -4355 -22 -392 -30 -435 -108 -585 -38 -72 -66 -109 -142 -185 -80 -80
-119 -110 -245 -184 -1151 -685 -2314 -1476 -3225 -2196 -283 -224 -357 -257
-549 -247 -175 8 -243 46 -501 276 -1045 930 -1936 1977 -2547 2991 -601 997
-935 1911 -1035 2835 -20 184 -17 695 5 870 65 511 214 955 446 1329 216 347
336 501 563 721 668 649 1618 1085 2809 1289 498 86 916 123 1494 133 1013 17
2074 -100 3200 -353 2676 -600 5505 -1975 7704 -3745 140 -112 263 -212 275
-221 25 -20 34 -17 -144 -58 -206 -47 -602 -152 -925 -245 -1582 -454 -3387
-1174 -5105 -2035 -498 -250 -481 -228 -500 -661 -14 -345 -13 -474 4 -507 19
-36 65 -78 99 -91 71 -27 102 -17 348 110 2127 1099 4199 1915 6074 2394 173
44 284 78 331 101 225 110 375 334 399 595 7 82 -21 298 -96 743 -60 355 -120
516 -265 709 -88 117 -177 198 -419 377 -1451 1079 -3134 2010 -4820 2666
-104 41 -207 86 -228 100 -49 32 -93 102 -107 171 -18 85 -2 135 102 312 519
889 1083 1490 1679 1785 203 101 405 163 619 190 81 10 357 -4 451 -23z m3574
-2217 c66 -31 607 -596 876 -914 737 -874 1343 -1861 1770 -2887 81 -195 79
-262 -14 -336 -49 -40 -98 -43 -269 -18 -275 40 -576 61 -888 61 -184 0 -235
10 -340 62 -87 44 -194 152 -238 238 -37 76 -42 95 -122 510 -210 1083 -533
2182 -890 3025 -29 70 -50 134 -50 156 0 43 30 86 74 105 40 17 51 17 91 -2z
m1916 -5114 c378 -30 715 -108 930 -215 151 -76 294 -196 354 -299 116 -198
106 -514 -29 -881 -47 -127 -204 -450 -240 -492 -80 -95 -242 -98 -328 -6 -14
15 -82 111 -150 213 -290 434 -611 856 -961 1263 -65 76 -125 150 -133 165
-18 35 -18 125 0 160 15 29 59 73 91 90 26 15 289 15 466 2z m-530 -1923 c55
-37 455 -643 594 -900 56 -105 68 -174 41 -255 -23 -67 -104 -160 -426 -485
l-255 -257 -45 0 c-51 0 -83 18 -105 59 -12 24 -13 69 -4 307 5 154 9 545 8
869 -2 655 -4 635 63 668 46 23 89 21 129 -6z m2104 -1087 c16 -18 17 -35 13
-172 -3 -84 -9 -160 -13 -170 -3 -9 -20 -22 -37 -29 -46 -19 -75 2 -109 81
-39 91 -39 152 2 213 36 55 83 97 108 97 10 0 26 -9 36 -20z m-12725 -1360
c47 -1339 201 -2639 456 -3849 25 -117 43 -215 42 -217 -2 -1 -93 37 -203 85
-1054 462 -2104 1037 -3055 1671 -345 230 -640 437 -640 450 0 12 430 349 745
586 720 541 1560 1107 2380 1607 l260 158 2 -93 c1 -51 7 -230 13 -398z
m11805 81 c98 -55 117 -96 202 -431 198 -786 202 -1530 11 -2199 -57 -201
-211 -562 -313 -738 -222 -378 -502 -697 -866 -989 -202 -162 -540 -372 -797
-498 -128 -62 -191 -70 -270 -36 -56 24 -106 74 -128 126 -23 56 -16 125 30
296 241 888 433 1873 561 2885 50 397 95 477 449 791 279 248 435 393 656 608
170 166 212 199 275 215 52 14 136 0 190 -30z m-2755 -2197 c38 -23 60 -64 60
-112 0 -44 -78 -484 -135 -762 -143 -694 -333 -1414 -523 -1981 -56 -164 -78
-204 -151 -272 -90 -84 -152 -102 -506 -142 -1020 -115 -2235 -63 -3418 144
-185 33 -218 47 -237 107 -16 48 -6 95 28 126 15 14 117 72 227 128 1564 805
3034 1694 4315 2610 113 80 214 152 225 158 29 17 83 15 115 -4z m-6519 -3734
c1324 -359 2441 -541 3624 -591 317 -13 902 -8 1241 12 250 15 260 13 318 -52
40 -43 60 -106 51 -152 -9 -40 -135 -285 -253 -488 -665 -1148 -1435 -1839
-2199 -1973 -563 -99 -1143 124 -1695 652 -476 457 -940 1172 -1318 2032 -125
285 -134 316 -109 403 24 86 141 171 245 176 11 1 54 -8 95 -19z m7190 -206
c39 -38 54 -85 39 -128 -20 -61 -704 -734 -786 -773 -43 -21 -96 -10 -133 28
-55 54 -52 77 32 265 41 93 103 236 137 317 40 95 71 154 85 163 12 8 116 41
231 74 115 33 229 66 254 75 59 19 106 12 141 -21z m-8556 -379 c24 -14 55
-40 68 -58 13 -17 61 -120 107 -227 98 -233 335 -719 451 -927 236 -423 496
-807 767 -1131 117 -141 394 -425 510 -525 92 -79 122 -125 122 -187 0 -72
-43 -136 -110 -164 -36 -14 -407 -57 -665 -76 -1992 -145 -3978 240 -5745
1116 -523 259 -1101 598 -1137 668 -35 67 -11 159 50 196 36 22 40 23 329 45
658 50 1457 192 2333 415 839 213 1654 474 2705 867 81 30 151 26 215 -12z"/>
</g>
</svg>
