<svg width="48" height="48" viewBox="0 0 48 48" fill="none" xmlns="http://www.w3.org/2000/svg">
<rect width="48" height="48" rx="24" fill="black"/>
<path d="M15.4976 9.98281C17.9864 8.65277 20.8447 7.89632 23.8844 7.89632C27.1507 7.89632 30.2077 8.76974 32.8218 10.2898C32.7405 5.69797 28.891 2 24.154 2C19.5232 2 15.7405 5.53428 15.4976 9.98281Z" fill="#73F36C"/>
<path d="M41.1651 27.2671C41.2777 26.4881 41.3358 25.6922 41.3358 24.8833C41.3358 19.7098 38.9598 15.0765 35.2119 11.9609C35.3392 11.8755 35.474 11.8004 35.6156 11.7363C38.0482 10.6353 41.6579 13.1709 43.6783 17.3998C45.6988 21.6288 45.3648 25.9497 42.9322 27.0506C42.3914 27.2956 41.7922 27.3606 41.1651 27.2671Z" fill="#73F36C"/>
<path d="M29.3765 41.0118C34.4924 39.362 38.5587 35.4707 40.3471 30.5335C40.9932 32.4525 40.6859 35.286 39.3515 38.0791C37.331 42.3082 33.7211 44.8439 31.2888 43.7427C30.2961 43.2935 29.6528 42.3082 29.3765 41.0118Z" fill="#73F36C"/>
<path d="M7.54811 30.8739C9.42394 35.7175 13.5084 39.5073 18.6063 41.0796C18.3213 42.3389 17.684 43.2947 16.7108 43.7354C14.2783 44.8364 10.6684 42.3007 8.64798 38.0718C7.39195 35.4429 7.04584 32.7783 7.54811 30.8739Z" fill="#73F36C"/>
<path d="M12.6511 11.8825C8.84845 14.9985 6.43221 19.6662 6.43221 24.8833C6.43221 25.7042 6.49206 26.5117 6.60771 27.3015C6.06309 27.3498 5.54276 27.2735 5.06742 27.0582C2.6349 25.9572 2.30086 21.6364 4.32133 17.4075C6.34178 13.1785 9.95161 10.6428 12.3841 11.7439C12.4761 11.7855 12.5651 11.8318 12.6511 11.8825Z" fill="#73F36C"/>
<path d="M20.2067 32.0394C20.558 31.569 21.1193 31.2905 21.7168 31.2905L26.3392 31.2908C26.9365 31.2908 27.4979 31.569 27.8491 32.0394L30.732 35.9001C31.3588 36.7393 31.1425 37.931 30.1936 38.4037C26.5725 40.2085 22.7372 40.441 18.0464 38.3686C17.0284 37.919 16.7504 36.6679 17.4077 35.7877L20.2067 32.0394Z" fill="#73F36C"/>
<path d="M29.9145 30.4569C29.5605 29.9851 29.461 29.3765 29.6476 28.821L31.0955 24.5067C31.2808 23.9538 31.7273 23.5207 32.2958 23.3419L36.9865 21.8665C38.0247 21.54 39.1386 22.1469 39.2449 23.2036C39.293 23.6815 39.3177 24.1661 39.3177 24.6563C39.3177 27.4228 39.3177 28.6453 37.2655 32.079C36.7426 32.9543 36.1289 33.7719 35.4382 34.5216C34.7112 35.3102 33.4468 35.1635 32.8045 34.3077L29.9145 30.4569Z" fill="#73F36C"/>
<path d="M36.2114 19.6494C37.2476 19.3199 37.7822 18.193 37.2333 17.2763C36.85 16.6359 36.4192 16.0259 35.9459 15.4508C35.8735 15.3629 35.8099 15.2689 35.7472 15.1743C34.8288 13.7921 31.4396 11.4223 29.8777 10.9776C29.7807 10.95 29.6836 10.9216 29.5895 10.8856C28.8523 10.6036 28.0876 10.3761 27.2999 10.2079C26.2334 9.98011 25.2959 10.8258 25.2957 11.8885L25.2954 16.7086C25.2954 17.2886 25.5798 17.8337 26.0609 18.1758L29.8579 20.8757C30.3426 21.2204 30.9682 21.3171 31.5388 21.1356L36.2114 19.6494Z" fill="#73F36C"/>
<path d="M12.6206 34.5214C11.9297 33.7719 11.316 32.954 10.7929 32.0787C9.34444 29.8007 8.74072 27.2784 8.74072 24.656C8.74072 24.1661 8.76543 23.6813 8.81361 23.2036C8.92012 22.1468 10.034 21.54 11.072 21.8665L15.7627 23.3419C16.3313 23.5207 16.7777 23.9536 16.9632 24.5064L18.411 28.821C18.5974 29.3765 18.498 29.9851 18.144 30.4569L15.2541 34.3077C14.612 35.1633 13.3476 35.3102 12.6206 34.5214Z" fill="#73F36C"/>
<path d="M16.519 21.1356C17.0897 21.3171 17.7152 21.2204 18.2 20.8757L21.9967 18.176C22.4779 17.8339 22.7623 17.2887 22.7623 16.7087L22.7619 11.8889C22.7618 10.826 21.8244 9.98829 20.7616 10.2322C19.93 10.423 19.1212 10.6735 18.3272 10.9404C15.7496 11.8068 13.3985 13.922 12.2215 15.3194C11.7048 15.9326 11.2372 16.5868 10.8243 17.2763C10.2754 18.1929 10.8102 19.3198 11.8462 19.6494L16.519 21.1356Z" fill="#73F36C"/>
<path d="M22.4149 28.8241C21.6033 28.8241 20.8847 28.3137 20.6372 27.5613L19.6223 24.4768C19.3779 23.7341 19.6476 22.9225 20.2925 22.4599L22.9206 20.5747C23.5791 20.1023 24.477 20.1023 25.1354 20.5747L27.7636 22.4599C28.4085 22.9225 28.6781 23.7341 28.4339 24.4768L27.419 27.5613C27.1714 28.3137 26.4527 28.8241 25.6412 28.8241H22.4149Z" fill="#73F36C"/>
</svg>
