<svg width="758" height="1103" viewBox="0 0 758 1103" fill="none" xmlns="http://www.w3.org/2000/svg">
<path d="M378.811 605.755L676.166 302.013L568.14 191.545L378.764 0.631958V605.708L378.811 605.755Z" fill="#9FF7EC"/>
<path d="M378.811 1102.2L0.577637 772.591V383.448" fill="#BADEFF"/>
<path d="M378.811 770.703C378.811 770.703 107.187 494.342 0.577637 383.448L378.811 770.703Z" fill="#CFE6FF"/>
<path d="M757.422 383.496V771.317L378.764 1102.06V770.562C378.764 770.562 650.812 494.201 757.422 383.308" fill="#BCCFFF"/>
<path d="M378.763 605.755C378.763 605.755 170.549 395.204 81.5972 301.636L189.151 191.498L378.763 0.679382V605.755Z" fill="#C5C5FF"/>
<path d="M378.811 1102.2V770.703C378.811 770.703 650.812 494.342 757.422 383.448L378.811 1101.97V1102.2Z" fill="#9077ED"/>
<path d="M0.577637 383.448C106.998 494.342 378.811 770.703 378.811 770.703V1102.16L0.577637 383.448Z" fill="#5E9EFC"/>
<path d="M676.214 302.014L378.764 605.803V410.5L676.214 302.061V302.014Z" fill="#A181F7"/>
<path d="M81.645 301.683C170.691 395.251 378.811 605.803 378.811 605.803V410.5L81.645 301.683Z" fill="#61A9FF"/>
</svg>
