<svg width="398" height="398" viewBox="0 0 398 398" fill="none" xmlns="http://www.w3.org/2000/svg">
<path d="M199.091 7.52853H199.099C304.898 7.52853 390.665 93.2955 390.665 199.095V199.102C390.665 304.901 304.898 390.668 199.099 390.668H199.091C93.2924 390.668 7.52536 304.901 7.52536 199.102V199.095C7.52536 93.2955 93.2924 7.52853 199.091 7.52853Z" fill="#111111" stroke="#111111" stroke-width="7.05706"/>
<path d="M199.099 4H199.091C91.3436 4 3.99683 91.3468 3.99683 199.095V199.102C3.99683 306.85 91.3436 394.196 199.091 394.196H199.099C306.846 394.196 394.193 306.85 394.193 199.102V199.095C394.193 91.3468 306.846 4 199.099 4Z" fill="url(#paint0_radial_2420_447)" fill-opacity="0.7"/>
<path d="M199.099 4H199.091C91.3436 4 3.99683 91.3468 3.99683 199.095V199.102C3.99683 306.85 91.3436 394.196 199.091 394.196H199.099C306.846 394.196 394.193 306.85 394.193 199.102V199.095C394.193 91.3468 306.846 4 199.099 4Z" stroke="url(#paint1_linear_2420_447)" stroke-width="7.14639"/>
<path fill-rule="evenodd" clip-rule="evenodd" d="M142.254 45.7356C79.9988 68.7833 35.6245 128.688 35.6245 198.958C35.6245 269.227 79.9988 329.132 142.254 352.18V336.067C88.4652 313.797 50.6245 260.797 50.6245 198.958C50.6245 137.119 88.4652 84.1182 142.254 61.8481V45.7356ZM255.667 61.8502V45.7374C317.92 68.7865 362.292 128.69 362.292 198.958C362.292 269.225 317.92 329.129 255.667 352.178V336.065C309.453 313.794 347.292 260.795 347.292 198.958C347.292 137.121 309.453 84.1215 255.667 61.8502Z" fill="white"/>
<path fill-rule="evenodd" clip-rule="evenodd" d="M198.968 61.835L207.523 76.5338L259.887 166.5H293V181.5H105V166.5H138.036L190.411 76.533L198.968 61.835ZM198.966 101.193L236.978 166.5H160.947L198.966 101.193ZM259.98 230.5H293V215.5H105V230.5H137.943L190.411 320.627L198.968 335.325L207.523 320.626L259.98 230.5ZM237.071 230.5H160.854L198.966 295.967L237.071 230.5Z" fill="white"/>
<defs>
<radialGradient id="paint0_radial_2420_447" cx="0" cy="0" r="1" gradientUnits="userSpaceOnUse" gradientTransform="translate(199.514 60.9737) rotate(90) scale(411.352 289.55)">
<stop offset="0.03125" stop-color="#3A3A3A"/>
<stop offset="1" stop-color="#1C1C1C"/>
</radialGradient>
<linearGradient id="paint1_linear_2420_447" x1="199.095" y1="0.318867" x2="199.095" y2="397.878" gradientUnits="userSpaceOnUse">
<stop stop-color="white"/>
<stop offset="1" stop-color="#111111"/>
</linearGradient>
</defs>
</svg>
