<svg version="1.1" xmlns="http://www.w3.org/2000/svg" width="32" height="32">
<path d="M0 0 C4.49361646 2.16656508 7.21078412 4.89752831 10 9 C10.98157258 14.76673891 10.80871837 20.22704049 8.375 25.5625 C3.75852915 30.30045692 0.67721152 32.25208373 -6 32.5 C-12.46907717 32.26781777 -15.6912302 30.43609166 -20.125 25.7578125 C-23.41749364 20.91510311 -22.69564379 15.63613434 -22 10 C-17.59795274 0.34935792 -9.81116445 -1.33421055 0 0 Z " fill="#F6ECE7" transform="translate(22,0)"/>
<path d="M0 0 C0.99 0 1.98 0 3 0 C2.32116957 3.11547441 1.25893098 5.85137721 -0.0625 8.75 C-0.60583984 9.94882812 -0.60583984 9.94882812 -1.16015625 11.171875 C-1.43730469 11.77515625 -1.71445312 12.3784375 -2 13 C-3.98 13 -5.96 13 -8 13 C-8.33 12.01 -8.66 11.02 -9 10 C-7.35 10 -5.7 10 -4 10 C-3.79503906 9.36191406 -3.59007812 8.72382813 -3.37890625 8.06640625 C-3.10949219 7.24011719 -2.84007812 6.41382813 -2.5625 5.5625 C-2.16224609 4.32693359 -2.16224609 4.32693359 -1.75390625 3.06640625 C-1 1 -1 1 0 0 Z " fill="#F652AF" transform="translate(21,11)"/>
<path d="M0 0 C2.64 0 5.28 0 8 0 C8 1.32 8 2.64 8 4 C5.03 4 2.06 4 -1 4 C-0.67 2.68 -0.34 1.36 0 0 Z " fill="#F28EBC" transform="translate(8,9)"/>
<path d="M0 0 C0.99 0 1.98 0 3 0 C2.40072174 3.35595828 1.15377564 5.37801226 -1 8 C-1.625 5.6875 -1.625 5.6875 -2 3 C-1.34 2.01 -0.68 1.02 0 0 Z " fill="#F78445" transform="translate(21,11)"/>
<path d="M0 0 C1.98 0 3.96 0 6 0 C6 0.99 6 1.98 6 3 C3.69 3.33 1.38 3.66 -1 4 C-0.67 2.68 -0.34 1.36 0 0 Z " fill="#F281A9" transform="translate(9,16)"/>
</svg>
