<?xml version="1.0" encoding="UTF-8"?>
<svg version="1.1" xmlns="http://www.w3.org/2000/svg" width="512" height="512">
<path d="M0 0 C0.90186035 0.17692383 1.8037207 0.35384766 2.73291016 0.53613281 C9.20599895 1.83501287 15.60888488 3.34657126 22 5 C22.82000488 5.20963379 23.64000977 5.41926758 24.48486328 5.63525391 C58.17024255 14.44485883 88.96649009 31.29229379 116 53 C117.50046875 54.19109375 117.50046875 54.19109375 119.03125 55.40625 C132.89778302 66.7515952 146.2899831 79.6029281 157 94 C157.45971191 94.59973633 157.91942383 95.19947266 158.39306641 95.81738281 C183.7457788 128.9479423 200.63105558 166.93602242 208 208 C208.16226074 208.83128418 208.32452148 209.66256836 208.49169922 210.51904297 C213.76694663 238.13651472 213.55756833 270.45402542 208 298 C207.82307617 298.90186035 207.64615234 299.8037207 207.46386719 300.73291016 C206.16498713 307.20599895 204.65342874 313.60888488 203 320 C202.79036621 320.82000488 202.58073242 321.64000977 202.36474609 322.48486328 C193.55514117 356.17024255 176.70770621 386.96649009 155 414 C154.2059375 415.0003125 153.411875 416.000625 152.59375 417.03125 C141.2484048 430.89778302 128.3970719 444.2899831 114 455 C113.10039551 455.68956787 113.10039551 455.68956787 112.18261719 456.39306641 C79.0520577 481.7457788 41.06397758 498.63105558 0 506 C-0.83128418 506.16226074 -1.66256836 506.32452148 -2.51904297 506.49169922 C-30.13651472 511.76694663 -62.45402542 511.55756833 -90 506 C-90.90186035 505.82307617 -91.8037207 505.64615234 -92.73291016 505.46386719 C-99.20599895 504.16498713 -105.60888488 502.65342874 -112 501 C-112.82000488 500.79036621 -113.64000977 500.58073242 -114.48486328 500.36474609 C-148.17024255 491.55514117 -178.96649009 474.70770621 -206 453 C-207.0003125 452.2059375 -208.000625 451.411875 -209.03125 450.59375 C-222.89778302 439.2484048 -236.2899831 426.3970719 -247 412 C-247.68956787 411.10039551 -247.68956787 411.10039551 -248.39306641 410.18261719 C-273.7457788 377.0520577 -290.63105558 339.06397758 -298 298 C-298.16226074 297.16871582 -298.32452148 296.33743164 -298.49169922 295.48095703 C-303.76694663 267.86348528 -303.55756833 235.54597458 -298 208 C-297.82307617 207.09813965 -297.64615234 206.1962793 -297.46386719 205.26708984 C-296.16498713 198.79400105 -294.65342874 192.39111512 -293 186 C-292.79036621 185.17999512 -292.58073242 184.35999023 -292.36474609 183.51513672 C-283.55514117 149.82975745 -266.70770621 119.03350991 -245 92 C-244.2059375 90.9996875 -243.411875 89.999375 -242.59375 88.96875 C-231.2484048 75.10221698 -218.3970719 61.7100169 -204 51 C-203.40026367 50.54028809 -202.80052734 50.08057617 -202.18261719 49.60693359 C-169.0520577 24.2542212 -131.06397758 7.36894442 -90 0 C-89.16871582 -0.16226074 -88.33743164 -0.32452148 -87.48095703 -0.49169922 C-59.86348528 -5.76694663 -27.54597458 -5.55756833 0 0 Z " fill="#78350F" transform="translate(301,3)"/>
<path d="M0 0 C13.4358532 9.11633378 30.01034216 11.47294257 45.90136719 11.32861328 C47.99220501 11.31255985 50.0810958 11.32855119 52.171875 11.34765625 C70.10197617 11.37600195 86.77663979 7.78596789 101.8671875 -2.2890625 C113.02672671 -9.4653101 122.86534943 -12.41565171 136 -12.3125 C136.97710937 -12.32023437 137.95421875 -12.32796875 138.9609375 -12.3359375 C161.72947543 -12.27538288 181.71616629 -1.94432381 197.625 13.9375 C198.39457031 14.69546875 199.16414063 15.4534375 199.95703125 16.234375 C215.27668932 32.20648869 222.18716198 53.06324945 221.7421875 74.8984375 C221.70442664 76.2448288 221.66550606 77.59118849 221.625 78.9375 C221.60695313 79.85789062 221.58890625 80.77828125 221.5703125 81.7265625 C220.7124033 96.81567143 212.91494841 113.04291812 203.125 124.375 C200.62068321 127.33509264 199.11507802 129.18915968 199.0625 133.125 C199.40645411 135.45624453 199.76521434 137.78544115 200.1496582 140.11035156 C200.68636469 144.43156928 200.78695212 148.63574107 200.79296875 152.984375 C200.79629715 153.83622375 200.79962555 154.68807251 200.80305481 155.56573486 C200.80809457 157.36087509 200.81046405 159.15602459 200.81030273 160.95117188 C200.81248235 163.66552578 200.83065077 166.37946817 200.84960938 169.09375 C200.87943996 177.901573 200.81362864 186.34746418 198.625 194.9375 C198.42237549 195.77555176 198.21975098 196.61360352 198.01098633 197.47705078 C188.69782733 234.37162337 167.93085311 264.62417237 135.21875 284.71875 C124.5245647 290.99386029 113.26139418 295.71221096 101.625 299.9375 C100.50996094 300.34742188 99.39492188 300.75734375 98.24609375 301.1796875 C95.0604606 302.25125641 91.88758656 303.1281762 88.625 303.9375 C87.55016357 304.20820312 87.55016357 304.20820312 86.45361328 304.484375 C44.35212845 314.68035742 -0.80182161 306.25444245 -37.73828125 284.2421875 C-43.63991004 280.58039931 -49.07923651 276.42205327 -54.375 271.9375 C-54.9122168 271.48536133 -55.44943359 271.03322266 -56.00292969 270.56738281 C-69.83615547 258.77014515 -80.1509426 245.10910095 -88.375 228.9375 C-88.85453125 228.00679687 -89.3340625 227.07609375 -89.828125 226.1171875 C-92.46855202 220.65250627 -94.51659326 214.9787571 -96.5 209.25 C-96.74194092 208.56824707 -96.98388184 207.88649414 -97.2331543 207.18408203 C-101.68301752 193.85432376 -102.83146487 180.81606497 -102.65625 166.87963867 C-102.62463871 164.34604303 -102.61521375 161.81307187 -102.609375 159.27929688 C-102.6002181 157.64322163 -102.58984656 156.00715263 -102.578125 154.37109375 C-102.57387512 153.62621201 -102.56962524 152.88133026 -102.56524658 152.11387634 C-102.49335025 146.81106952 -101.84533281 141.71956295 -100.9609375 136.48828125 C-100.27663874 129.22711104 -103.39063771 125.73817946 -107.8515625 120.28515625 C-120.18090218 104.68216431 -125.25200219 83.38209493 -123.15234375 63.86816406 C-120.15051011 40.68851206 -109.11076417 20.1364235 -90.47265625 5.6875 C-62.96271787 -14.05296488 -28.88960411 -20.38030254 0 0 Z " fill="#78350F" transform="translate(208.375,119.0625)"/>
<path d="M0 0 C13.4358532 9.11633378 30.01034216 11.47294257 45.90136719 11.32861328 C47.99220501 11.31255985 50.0810958 11.32855119 52.171875 11.34765625 C70.10197617 11.37600195 86.77663979 7.78596789 101.8671875 -2.2890625 C113.02672671 -9.4653101 122.86534943 -12.41565171 136 -12.3125 C136.97710937 -12.32023437 137.95421875 -12.32796875 138.9609375 -12.3359375 C161.72947543 -12.27538288 181.71616629 -1.94432381 197.625 13.9375 C198.39457031 14.69546875 199.16414063 15.4534375 199.95703125 16.234375 C215.27668932 32.20648869 222.18716198 53.06324945 221.7421875 74.8984375 C221.70442664 76.2448288 221.66550606 77.59118849 221.625 78.9375 C221.60695313 79.85789062 221.58890625 80.77828125 221.5703125 81.7265625 C220.7124033 96.81567143 212.91494841 113.04291812 203.125 124.375 C200.62068321 127.33509264 199.11507802 129.18915968 199.0625 133.125 C199.40645411 135.45624453 199.76521434 137.78544115 200.1496582 140.11035156 C200.68636469 144.43156928 200.78695212 148.63574107 200.79296875 152.984375 C200.79629715 153.83622375 200.79962555 154.68807251 200.80305481 155.56573486 C200.80809457 157.36087509 200.81046405 159.15602459 200.81030273 160.95117188 C200.81248235 163.66552578 200.83065077 166.37946817 200.84960938 169.09375 C200.87943996 177.901573 200.81362864 186.34746418 198.625 194.9375 C198.42237549 195.77555176 198.21975098 196.61360352 198.01098633 197.47705078 C188.69782733 234.37162337 167.93085311 264.62417237 135.21875 284.71875 C124.5245647 290.99386029 113.26139418 295.71221096 101.625 299.9375 C100.50996094 300.34742188 99.39492188 300.75734375 98.24609375 301.1796875 C95.0604606 302.25125641 91.88758656 303.1281762 88.625 303.9375 C87.55016357 304.20820312 87.55016357 304.20820312 86.45361328 304.484375 C44.35212845 314.68035742 -0.80182161 306.25444245 -37.73828125 284.2421875 C-43.63991004 280.58039931 -49.07923651 276.42205327 -54.375 271.9375 C-54.9122168 271.48536133 -55.44943359 271.03322266 -56.00292969 270.56738281 C-69.83615547 258.77014515 -80.1509426 245.10910095 -88.375 228.9375 C-88.85453125 228.00679687 -89.3340625 227.07609375 -89.828125 226.1171875 C-92.46855202 220.65250627 -94.51659326 214.9787571 -96.5 209.25 C-96.74194092 208.56824707 -96.98388184 207.88649414 -97.2331543 207.18408203 C-101.68301752 193.85432376 -102.83146487 180.81606497 -102.65625 166.87963867 C-102.62463871 164.34604303 -102.61521375 161.81307187 -102.609375 159.27929688 C-102.6002181 157.64322163 -102.58984656 156.00715263 -102.578125 154.37109375 C-102.57387512 153.62621201 -102.56962524 152.88133026 -102.56524658 152.11387634 C-102.49335025 146.81106952 -101.84533281 141.71956295 -100.9609375 136.48828125 C-100.27663874 129.22711104 -103.39063771 125.73817946 -107.8515625 120.28515625 C-120.18090218 104.68216431 -125.25200219 83.38209493 -123.15234375 63.86816406 C-120.15051011 40.68851206 -109.11076417 20.1364235 -90.47265625 5.6875 C-62.96271787 -14.05296488 -28.88960411 -20.38030254 0 0 Z M-86.54296875 34.4140625 C-96.4730171 47.87333333 -101.30288115 63.2423653 -99.375 79.9375 C-97.07691133 92.6640365 -92.33285751 104.65680167 -82.54760742 113.37524414 C-75.64355876 119.56581061 -75.64355876 119.56581061 -74.7578125 124.08984375 C-75.01244127 127.47804909 -75.67574711 130.61356546 -76.375 133.9375 C-78.14021182 143.8709471 -78.74506181 153.60922448 -78.6875 163.6875 C-78.68501251 164.38715881 -78.68252502 165.08681763 -78.67996216 165.80767822 C-78.50663395 197.40743713 -68.22796275 224.50680048 -46.1875 247.5625 C-19.85538895 272.97132525 16.06188643 285.39097647 52.34277344 285.23999023 C86.68680805 284.49473716 119.76223986 270.34278799 144.625 246.9375 C145.22828125 246.39867187 145.8315625 245.85984375 146.453125 245.3046875 C166.24628857 226.89889521 176.34409343 198.06372281 177.75097656 171.56469727 C178.18158603 157.51129398 178.11828754 142.41736262 173.625 128.9375 C172.86941687 121.88539082 172.86941687 121.88539082 176.00390625 117.953125 C177.05066805 117.01489034 178.11277509 116.09356892 179.1875 115.1875 C190.77703502 104.46331239 197.43941976 90.02686181 198.21679688 74.21166992 C198.42451286 59.98465211 194.27906063 47.31296334 185.625 35.9375 C185.04105469 35.16019531 184.45710938 34.38289063 183.85546875 33.58203125 C176.25592951 24.28659483 165.99168654 17.63915121 154.625 13.9375 C153.861875 13.64101562 153.09875 13.34453125 152.3125 13.0390625 C137.74890869 7.81724851 123.9387937 11.47880534 110.3359375 17.359375 C105.40080537 19.73129897 100.88858897 22.40822509 96.375 25.5 C89.66575468 29.89504186 82.32198226 31.94590116 74.625 33.9375 C73.96983398 34.12513916 73.31466797 34.31277832 72.63964844 34.50610352 C65.53183985 36.36236175 58.43309161 36.2819869 51.125 36.25 C50.45959198 36.24784485 49.79418396 36.2456897 49.10861206 36.24346924 C28.92200456 36.13850604 11.75758762 32.73906462 -5.01611328 21.27294922 C-32.45095484 3.02703337 -65.40064174 10.26228714 -86.54296875 34.4140625 Z " fill="#FDFCFC" transform="translate(208.375,119.0625)"/>
<path d="M0 0 C6.686279 5.14674922 11.41866356 12.57349521 13.32421875 20.7890625 C14.03523146 28.85320665 14.69983021 37.67503603 9.32421875 44.2265625 C4.67532912 46.64785918 1.4427532 47.16889849 -3.67578125 45.7890625 C-8.62044704 43.25469475 -13.02189145 39.79744849 -17.44482422 36.46240234 C-20.55408059 34.13028994 -23.71575656 31.87378458 -26.875 29.61010742 C-29.81859842 27.49758901 -32.74928436 25.36772919 -35.67602539 23.23193359 C-37.00422763 22.2736043 -38.34202045 21.32842276 -39.68920898 20.39697266 C-43.79524937 17.55298493 -46.03989609 15.60048945 -47.67578125 10.7890625 C-48.28179925 6.47118422 -48.3024244 4.63111423 -45.67578125 1.1015625 C-31.44429113 -9.86854447 -14.95945332 -9.53459662 0 0 Z " fill="#FDFCFB" transform="translate(365.67578125,165.2109375)"/>
<path d="M0 0 C3.18857008 1.98632235 5.68924458 4.09723917 7.3828125 7.484375 C7.85779454 11.66421697 7.43127963 14.46141883 4.87109375 17.875 C-2.58330079 25.93592008 -12.68428692 31.86368856 -21.65380859 38.11279297 C-23.37241394 39.31338049 -25.08334791 40.52493411 -26.79296875 41.73828125 C-28.09814453 42.66447266 -28.09814453 42.66447266 -29.4296875 43.609375 C-30.52216797 44.38667969 -30.52216797 44.38667969 -31.63671875 45.1796875 C-35.22152976 47.54127897 -37.77369433 48.76412495 -42.1171875 48.734375 C-42.87 48.73953125 -43.6228125 48.7446875 -44.3984375 48.75 C-46.91838134 48.44831658 -48.48701635 47.85897262 -50.6171875 46.484375 C-54.94265823 38.76032012 -55.06122906 28.23606596 -52.92578125 19.73046875 C-51.99144788 17.48259559 -50.9322456 15.53093417 -49.6171875 13.484375 C-48.9984375 12.45957031 -48.9984375 12.45957031 -48.3671875 11.4140625 C-37.50086041 -4.82368764 -16.99856367 -7.84549093 0 0 Z " fill="#FDFDFC" transform="translate(187.6171875,162.515625)"/>
<path d="M0 0 C5.75286901 3.69666778 9.55638369 8.60983522 12 15 C12.61406509 18.05416585 12.48458983 19.82324442 12 23 C10.12984906 25.43119623 8.71861655 26.64069173 6 28 C-2.28088416 28.63615394 -10.5907863 27.58936608 -18.79980469 26.56567383 C-20.89075083 26.3105784 -22.98372359 26.08604198 -25.078125 25.86132812 C-26.42470792 25.69717827 -27.77107278 25.53122733 -29.1171875 25.36328125 C-30.31972168 25.22188721 -31.52225586 25.08049316 -32.76123047 24.93481445 C-36.73229137 23.78863684 -38.39861741 22.16417314 -41 19 C-42.0625 16.0625 -42.0625 16.0625 -42 13 C-38.29840287 5.75103896 -32.12064956 -0.35215553 -24.515625 -3.33984375 C-15.87749776 -5.60668149 -7.73347625 -4.30980187 0 0 Z " fill="#FCFBFA" transform="translate(219,285)"/>
<path d="M0 0 C5.99083791 3.20937745 10.75118507 7.18497129 13.9375 13.3125 C14.61759093 17.61974253 14.49129439 19.48180842 12.0625 23.125 C7.73201523 26.15633934 4.13728228 26.68388782 -1.0625 27.3125 C-1.79017578 27.40128418 -2.51785156 27.49006836 -3.26757812 27.58154297 C-32.39081921 31.04386894 -32.39081921 31.04386894 -38.0625 27.3125 C-40.51482286 23.63401571 -40.38548981 22.08839937 -39.78515625 17.8515625 C-37.53413537 9.94257022 -31.88692113 4.57302563 -25.078125 0.37109375 C-18.07010626 -3.30947423 -7.24138115 -3.06985047 0 0 Z " fill="#FCFBFB" transform="translate(323.0625,282.6875)"/>
<path d="M0 0 C1.9375 1.6875 1.9375 1.6875 3.0625 4.375 C2.85408572 9.89797846 -0.00115322 13.60319835 -3.81640625 17.4609375 C-9.41885887 22.42207265 -13.60433476 24.28660753 -21.1796875 24.125 C-27.85133729 23.1125003 -32.43633079 18.78395604 -36.5625 13.6875 C-38.80016708 10.38756961 -40.42753557 7.79415015 -40.0625 3.6875 C-29.70539568 -8.0323812 -12.93740875 -5.54460375 0 0 Z " fill="#FCFAFA" transform="translate(276.0625,312.3125)"/>
</svg>
