<svg width="30px" height="30px" viewBox="0 0 32 32" fill="none" xmlns="http://www.w3.org/2000/svg"><rect width="32" height="32" rx="16" fill="url(#paint0_linear_6423_39645)"></rect><path fill-rule="evenodd" clip-rule="evenodd" d="M22.792 22.5298C22.7937 22.5419 22.7944 22.5542 22.7947 22.5666C22.7951 22.6627 22.7457 22.7521 22.6638 22.8025L16.1078 26.8451C16.0192 26.8996 15.9077 26.9 15.8194 26.8454L9.31628 22.8533C9.23444 22.8028 9.18465 22.7137 9.18498 22.6177C9.18498 22.6094 9.18533 22.6009 9.18635 22.5926C9.18533 22.5837 9.18498 22.5752 9.18498 22.5663L9.18458 17.5785C9.18458 17.5725 9.18493 17.5664 9.18527 17.5607C9.18049 17.4884 9.20435 17.4152 9.25549 17.3584C9.34277 17.2617 9.48563 17.2395 9.59782 17.3048L15.988 21.0135L22.3194 17.3407C22.3296 17.3343 22.3405 17.3293 22.3514 17.3245C22.3978 17.2887 22.4557 17.2674 22.5192 17.2674C22.6709 17.2674 22.7943 17.3908 22.7944 17.5427L22.7947 22.4912C22.7947 22.5045 22.7937 22.5172 22.792 22.5298ZM9.73528 22.1309L11.6242 20.9897L9.73499 18.3896L9.73528 22.1309ZM11.9489 21.4368C11.4248 21.7533 9.98935 22.6205 9.98935 22.6205L15.0787 25.7451L11.9489 21.4368ZM16.9363 25.6877L21.9904 22.5711L20.0375 21.3969L16.9363 25.6877ZM20.3611 20.9491L22.2444 22.0815L22.2441 18.3436L20.3611 20.9491ZM15.85 21.5697L10.4476 18.434L15.9878 26.0603L21.4765 18.4657L16.1262 21.5697C16.0409 21.6192 15.9352 21.6192 15.85 21.5697ZM9.45045 16.2397C9.30281 16.2347 9.18447 16.1135 9.18446 15.9645L9.18394 9.4813C9.18394 9.46512 9.18531 9.44925 9.18804 9.43403C9.18531 9.41913 9.18394 9.40392 9.18394 9.38838C9.18359 9.2923 9.23337 9.20289 9.3152 9.15279L15.8715 5.13177C15.9595 5.07754 16.0707 5.07755 16.1586 5.13146L22.6617 9.10173C22.7439 9.15183 22.7937 9.24125 22.7937 9.33732C22.7937 9.34145 22.7934 9.34526 22.7934 9.34938C22.7934 9.3535 22.7937 9.35762 22.7937 9.36206L22.7942 15.9306C22.7942 16.0466 22.722 16.1462 22.6203 16.1865L16.1206 19.762C16.0381 19.8073 15.9378 19.8073 15.8553 19.762L9.45045 16.2397ZM9.73432 9.87385L9.73473 15.0906L12.0728 11.2798L9.73432 9.87385ZM22.2434 9.82438L19.8833 11.2503L22.2438 15.0973L22.2434 9.82438ZM19.5954 10.781C20.2007 10.4154 21.9883 9.33543 21.9883 9.33543L16.7435 6.13314L19.5954 10.781ZM15.1934 6.19308L9.98932 9.3849L12.3606 10.8108L15.1934 6.19308ZM9.90698 15.8627L15.9879 19.2067L22.0676 15.8624L15.9869 5.9524L9.90698 15.8627Z" fill="url(#paint1_linear_6423_39645)"></path><defs><linearGradient id="paint0_linear_6423_39645" x1="20.2555" y1="-1.60148" x2="11.828" y2="32.7327" gradientUnits="userSpaceOnUse"><stop stop-color="#211D60"></stop><stop offset="1" stop-color="#1D1534"></stop></linearGradient><linearGradient id="paint1_linear_6423_39645" x1="15.8879" y1="26.5061" x2="22.6693" y2="9.47635" gradientUnits="userSpaceOnUse"><stop stop-color="#29BCFA"></stop><stop offset="0.43" stop-color="#6464E4"></stop><stop offset="1" stop-color="#B45AFA"></stop></linearGradient></defs></svg>
