<svg xmlns="http://www.w3.org/2000/svg" width="150" height="150" viewBox="0 0 206 205" fill="none" data-astro-cid-hbgf2gm7="">
   <g filter="url(#filter0_d_618_137)" data-astro-cid-hbgf2gm7="">
      <path d="M103.031 124.123C119.648 124.123 133.12 110.652 133.12 94.034C133.12 77.4162 119.648 63.9449 103.031 63.9449C86.414 63.9449 72.9421 77.4162 72.9421 94.034C72.9421 110.652 86.414 124.123 103.031 124.123Z" fill="black" data-astro-cid-hbgf2gm7=""></path>
      <path fill-rule="evenodd" clip-rule="evenodd" d="M125.907 5.99564C119.682 11.156 111.689 14.2578 102.972 14.2578C94.2983 14.2578 86.3423 11.1872 80.1306 6.07322C73.5403 0.648355 62.968 -1.66063 56.8785 4.31958C42.23 18.7036 27.7015 33.2328 13.3163 47.8812C7.33728 53.9708 9.64567 64.5437 15.0711 71.1328C20.1839 77.3445 23.2551 85.3011 23.2551 93.9746C23.2551 102.692 20.1533 110.685 14.9935 116.911C9.54577 123.482 7.20329 134.046 13.1776 140.141C27.5487 154.803 42.1137 169.296 56.768 183.676C62.8775 189.671 73.5015 187.343 80.1059 181.896C86.3211 176.771 94.2865 173.692 102.972 173.692C111.701 173.692 119.704 176.802 125.933 181.974C132.518 187.444 143.133 189.806 149.248 183.816C163.915 169.451 178.448 154.918 192.813 140.252C198.804 134.136 196.441 123.521 190.971 116.936C185.798 110.707 182.689 102.704 182.689 93.9746C182.689 85.2893 185.768 77.3234 190.894 71.1081C196.34 64.5037 198.669 53.8809 192.673 47.7708C178.294 33.1164 163.801 18.5508 149.138 4.1803C143.043 -1.79463 132.479 0.549037 125.907 5.99564ZM86.1013 32.1668C95.4642 22.8039 110.644 22.8039 120.007 32.1668L165.032 77.1923C174.395 86.5552 174.395 101.735 165.032 111.098L120.007 156.124C110.644 165.486 95.4642 165.486 86.1013 156.124L41.0759 111.098C31.713 101.735 31.713 86.5552 41.0759 77.1923L86.1013 32.1668Z" fill="black" data-astro-cid-hbgf2gm7=""></path>
   </g>
</svg>
