<svg width="562" height="562" viewBox="0 0 562 562" fill="none" xmlns="http://www.w3.org/2000/svg">
<circle cx="281" cy="281" r="266.497" fill="black" stroke="black" stroke-width="29.0065"/>
<path fill-rule="evenodd" clip-rule="evenodd" d="M365.155 296.153C365.11 296.153 365.066 296.154 365.021 296.154H204.135L269.646 405.771L304.894 349.031C309.12 342.227 318.062 340.138 324.866 344.364C331.67 348.591 333.76 357.533 329.533 364.337L281.725 441.295C279.056 445.592 274.34 448.188 269.281 448.144C264.222 448.101 259.552 445.424 256.956 441.082L166.122 289.09C163.444 284.609 163.381 279.034 165.957 274.494C168.533 269.953 173.351 267.147 178.572 267.147H196.846C196.891 267.147 196.936 267.146 196.98 267.146H357.947L292.355 156.711L257.129 213.769C252.921 220.584 243.984 222.698 237.169 218.491C230.353 214.283 228.239 205.347 232.447 198.531L280.255 121.095C282.92 116.778 287.647 114.168 292.72 114.211C297.793 114.255 302.474 116.946 305.065 121.308L395.899 274.243C398.561 278.726 398.613 284.293 396.034 288.824C393.455 293.355 388.643 296.153 383.43 296.153H365.155Z" fill="white"/>
</svg>
