<svg width="1200" height="1200" viewBox="0 0 1200 1200" fill="none" xmlns="http://www.w3.org/2000/svg">
<path d="M604 1192C933.162 1192 1200 925.162 1200 596C1200 266.838 933.162 0 604 0C274.838 0 8 266.838 8 596C8 925.162 274.838 1192 604 1192Z" fill="black"/>
<path d="M974.418 785.443L1042.56 751.49L1066.05 679.397L1019.07 645.211H706.279L633.953 698.932H1001.63L982.093 759.397H834.651L820.465 803.583H967.907L926.511 930.792L995.581 896.606L1020.23 820.327L973.953 786.373L974.418 785.443Z" fill="#FCFC03"/>
<path d="M737.906 876.141L780.464 743.583L733.254 708.234L662.324 930.792H926.51L944.185 876.141H737.906Z" fill="#FCFC03"/>
<path fill-rule="evenodd" clip-rule="evenodd" d="M299.646 519.48L481.105 251.169C497.203 227.368 528.887 221.583 551.875 238.249C574.864 254.915 580.451 287.72 564.354 311.52L382.895 579.832C366.798 603.633 335.113 609.417 312.125 592.752C289.136 576.086 283.549 543.281 299.646 519.48ZM588.841 183.592C640.985 221.394 653.657 295.805 617.146 349.792L435.686 618.103C399.174 672.091 327.304 685.21 275.159 647.409C223.015 609.606 210.343 535.196 246.854 481.208L428.314 212.897C464.826 158.91 536.696 145.789 588.841 183.592Z" fill="white"/>
<line x1="306.585" y1="1092.72" x2="968.585" y2="106.721" stroke="white"/>
</svg>
