<?xml version="1.0" standalone="no"?>
<!DOCTYPE svg PUBLIC "-//W3C//DTD SVG 20010904//EN"
 "http://www.w3.org/TR/2001/REC-SVG-20010904/DTD/svg10.dtd">
<svg version="1.0" xmlns="http://www.w3.org/2000/svg"
 width="64.000000pt" height="64.000000pt" viewBox="0 0 64.000000 64.000000"
 preserveAspectRatio="xMidYMid meet">

<g transform="translate(0.000000,64.000000) scale(0.100000,-0.100000)"
fill="#000000" stroke="none">
<path d="M255 466 c-84 -37 -117 -133 -75 -215 19 -38 19 -39 0 -56 -11 -10
-17 -22 -13 -27 3 -6 63 47 133 117 l127 127 13 -33 c28 -67 6 -139 -53 -174
-27 -16 -86 -23 -112 -14 -5 2 -11 -1 -13 -6 -4 -17 56 -26 98 -15 99 27 143
134 94 231 -11 23 -11 29 1 39 8 7 15 20 15 29 0 9 -55 -39 -125 -109 -119
-119 -126 -124 -142 -107 -26 26 -24 107 3 144 31 43 81 65 132 59 44 -6 58 7
20 18 -36 9 -70 6 -103 -8z"/>
</g>
</svg>
