<svg width="41" height="40" viewBox="0 0 41 40" fill="none" xmlns="http://www.w3.org/2000/svg">
<circle cx="20.666" cy="20" r="19.5" fill="black" stroke="#262626"/>
<path d="M20.8084 29.9492C20.168 29.9492 19.5419 30.1391 19.0094 30.4949C18.4769 30.8508 18.0619 31.3565 17.8168 31.9481C17.5717 32.5398 17.5076 33.1909 17.6326 33.8191C17.7575 34.4471 18.0659 35.0241 18.5187 35.477C18.9716 35.9298 19.5486 36.2383 20.1767 36.3632C20.8049 36.4881 21.4559 36.424 22.0476 36.1789C22.6393 35.9338 23.145 35.5188 23.5008 34.9863C23.8566 34.4538 24.0465 33.8277 24.0465 33.1873C24.0465 32.3285 23.7054 31.5049 23.0981 30.8976C22.4908 30.2904 21.6672 29.9492 20.8084 29.9492Z" fill="#FF4400"/>
<path d="M32.7186 16.9097C32.0781 16.9097 31.4521 17.0996 30.9196 17.4554C30.3871 17.8112 29.9721 18.3169 29.727 18.9086C29.4819 19.5003 29.4177 20.1514 29.5427 20.7795C29.6677 21.4076 29.9761 21.9846 30.4289 22.4374C30.8817 22.8903 31.4587 23.1987 32.0869 23.3236C32.715 23.4486 33.366 23.3845 33.9578 23.1394C34.5495 22.8943 35.0552 22.4792 35.411 21.9467C35.7668 21.4142 35.9567 20.7882 35.9567 20.1478C35.9567 19.2889 35.6155 18.4653 35.0082 17.8581C34.401 17.2508 33.5774 16.9097 32.7186 16.9097Z" fill="#FF4400"/>
<path d="M8.66582 16.9097C8.02541 16.9097 7.39935 17.0996 6.86684 17.4554C6.33432 17.8112 5.91933 18.3169 5.67424 18.9086C5.42916 19.5003 5.36498 20.1514 5.48998 20.7795C5.61492 21.4076 5.92333 21.9846 6.37614 22.4374C6.82901 22.8903 7.40597 23.1987 8.03413 23.3236C8.66228 23.4486 9.31331 23.3845 9.90502 23.1394C10.4967 22.8943 11.0024 22.4792 11.3582 21.9467C11.714 21.4142 11.9039 20.7882 11.9039 20.1478C11.9039 19.2889 11.5628 18.4653 10.9555 17.8581C10.3483 17.2508 9.52464 16.9097 8.66582 16.9097Z" fill="#FF4400"/>
<path d="M20.8097 9.71446C21.4504 9.71578 22.0771 9.52693 22.6105 9.17192C23.1438 8.81691 23.5599 8.31166 23.8059 7.72009C24.0521 7.12851 24.1171 6.47723 23.9929 5.84868C23.8687 5.22014 23.5608 4.64252 23.1082 4.189C22.6556 3.73553 22.0787 3.42647 21.4504 3.30101C20.822 3.17548 20.1707 3.23926 19.5786 3.48415C18.9866 3.72904 18.4804 4.14403 18.1243 4.67668C17.7682 5.20932 17.5781 5.83564 17.5781 6.47637C17.5781 7.33401 17.9184 8.15664 18.5242 8.76375C19.1301 9.37079 19.952 9.71269 20.8097 9.71446Z" fill="#FF4400"/>
<path d="M28.0903 24.2791C26.9414 23.1216 26.2966 21.5558 26.2966 19.9238C26.2966 18.2918 26.9414 16.7261 28.0903 15.5686C28.5382 15.1183 28.8427 14.5452 28.9657 13.9218C29.0885 13.2982 29.0242 12.6523 28.7807 12.0653C28.5373 11.4784 28.1257 10.9769 27.5978 10.6241C27.07 10.2713 26.4496 10.083 25.8149 10.083C25.1803 10.083 24.5599 10.2713 24.0321 10.6241C23.5043 10.9769 23.0926 11.4784 22.8492 12.0653C22.6058 12.6523 22.5414 13.2982 22.6643 13.9218C22.7872 14.5452 23.0918 15.1183 23.5396 15.5686C24.1167 16.1411 24.5748 16.8226 24.8875 17.5735C25.2 18.3243 25.361 19.1298 25.361 19.9433C25.361 20.7569 25.2 21.5623 24.8875 22.3132C24.5748 23.0641 24.1167 23.7455 23.5396 24.3181C23.0918 24.7684 22.7872 25.3415 22.6643 25.9649C22.5414 26.5885 22.6058 27.2344 22.8492 27.8214C23.0926 28.4082 23.5043 28.9098 24.0321 29.2626C24.5599 29.6154 25.1803 29.8037 25.8149 29.8037C26.4496 29.8037 27.07 29.6154 27.5978 29.2626C28.1257 28.9098 28.5373 28.4082 28.7807 27.8214C29.0242 27.2344 29.0885 26.5885 28.9657 25.9649C28.8427 25.3415 28.5382 24.7684 28.0903 24.3181V24.2791Z" fill="#FF4400"/>
<path d="M18.8454 26.1538C18.842 25.3094 18.5109 24.4994 17.9223 23.8948C16.7734 22.7373 16.1286 21.1715 16.1286 19.5395C16.1286 17.9075 16.7734 16.3418 17.9223 15.1843C18.3702 14.734 18.6748 14.1609 18.7976 13.5375C18.9206 12.914 18.8562 12.268 18.6127 11.6811C18.3694 11.0942 17.9577 10.5927 17.4298 10.2398C16.902 9.88705 16.2816 9.69873 15.647 9.69873C15.0124 9.69873 14.392 9.88705 13.8641 10.2398C13.3363 10.5927 12.9247 11.0942 12.6812 11.6811C12.4378 12.268 12.3734 12.914 12.4963 13.5375C12.6192 14.1609 12.9238 14.734 13.3717 15.1843C13.9478 15.7568 14.405 16.4378 14.7171 17.1881C15.0291 17.9384 15.1898 18.7431 15.1898 19.5558C15.1898 20.3686 15.0291 21.1733 14.7171 21.9236C14.405 22.6739 13.9478 23.3549 13.3717 23.9273C13.002 24.3034 12.7303 24.7647 12.5807 25.2708C12.4311 25.7767 12.4081 26.3118 12.5138 26.8288C12.6195 27.3458 12.8506 27.8288 13.1868 28.2352C13.5229 28.6416 13.9537 28.9589 14.4413 29.1592C14.9289 29.3594 15.4581 29.4365 15.9824 29.3835C16.5067 29.3305 17.0099 29.1492 17.4477 28.8554C17.8855 28.5616 18.2443 28.1645 18.4926 27.699C18.7409 27.2336 18.871 26.714 18.8714 26.1863L18.8454 26.1538Z" fill="#FF4400"/>
</svg>
