<svg width="1200" height="1200" viewBox="0 0 1200 1200" fill="none" xmlns="http://www.w3.org/2000/svg">
<circle cx="604" cy="596" r="596" fill="black"/>
<path fill-rule="evenodd" clip-rule="evenodd" d="M395.848 755.339L675.932 355.338C700.778 319.855 749.683 311.231 785.166 336.077C820.649 360.922 829.272 409.828 804.427 445.31L524.343 845.312C499.497 880.795 450.592 889.418 415.109 864.573C379.626 839.727 371.003 790.822 395.848 755.339ZM842.222 254.593C922.707 310.949 942.267 421.881 885.911 502.366L605.827 902.367C549.47 982.853 438.539 1002.41 358.053 946.057C277.568 889.7 258.008 778.768 314.364 698.283L594.448 298.282C650.805 217.797 761.736 198.236 842.222 254.593Z" fill="white"/>
</svg>
